<?xml version="1.0" encoding="utf-8"?>
<!-- Generator: Adobe Illustrator 27.5.0, SVG Export Plug-In . SVG Version: 6.00 Build 0)  -->
<svg version="1.1" xmlns="http://www.w3.org/2000/svg" xmlns:xlink="http://www.w3.org/1999/xlink" x="0px" y="0px"
	 viewBox="0 0 500 500" style="enable-background:new 0 0 500 500;" xml:space="preserve">
<g id="BACKGROUND">
	<polygon style="fill:#FFFFFF;" points="500,500 0,500 0,0 250,0 500,0 	"/>
</g>
<g id="OBJECTS">
	<g>
		<g>
			<g>
				<path style="fill:#D4D5FD;" d="M174.83,116.543c-4.784,0-8.663-3.879-8.663-8.663c0-4.784,3.879-8.663,8.663-8.663h10.508
					c4.785,0,8.663-3.879,8.663-8.663l0,0c0-4.784-3.878-8.663-8.663-8.663h-59.654c-4.784,0-8.663,3.879-8.663,8.663l0,0
					c0,4.784,3.879,8.663,8.663,8.663h7.988c4.784,0,8.663,3.879,8.663,8.663c0,4.784-3.878,8.663-8.663,8.663h-7.988h-16.487
					c-4.784,0-8.663,3.879-8.663,8.663c0,4.784,3.879,8.663,8.663,8.663h92.629c4.784,0,8.663-3.878,8.663-8.663
					c0-4.784-3.878-8.663-8.663-8.663h-16.487H174.83z"/>
			</g>
			<g>
				<path style="fill:#D4D5FD;" d="M425.721,155.402c0-4.784,3.879-8.663,8.663-8.663h1.408c4.784,0,8.663-3.879,8.663-8.663v0
					c0-4.784-3.879-8.663-8.663-8.663h-50.555c-4.784,0-8.663,3.879-8.663,8.663v0c0,4.784,3.879,8.663,8.663,8.663h7.988
					c4.785,0,8.663,3.878,8.663,8.663c0,4.784-3.878,8.663-8.663,8.663h-7.988H368.75c-4.784,0-8.663,3.878-8.663,8.663
					c0,4.784,3.879,8.663,8.663,8.663h73.733c4.784,0,8.663-3.878,8.663-8.663c0-4.784-3.879-8.663-8.663-8.663h-8.099
					C429.6,164.065,425.721,160.186,425.721,155.402z"/>
			</g>
			<g>
				<path style="fill:#D4D5FD;" d="M152.246,239.266c-4.785,0-8.663-3.878-8.663-8.663c0-4.784,3.878-8.663,8.663-8.663h10.508
					c4.784,0,8.663-3.879,8.663-8.663c0-4.784-3.878-8.663-8.663-8.663H68.006c-4.784,0-8.663,3.878-8.663,8.663
					c0,4.784,3.878,8.663,8.663,8.663h35.093h7.988c4.784,0,8.663,3.878,8.663,8.663c0,4.784-3.879,8.663-8.663,8.663h-7.988h-0.263
					c-4.784,0-8.663,3.879-8.663,8.663c0,4.785,3.879,8.663,8.663,8.663h76.404c4.784,0,8.663-3.878,8.663-8.663
					c0-4.784-3.878-8.663-8.663-8.663h-16.487H152.246z"/>
			</g>
			<g>
				<path style="fill:#D4D5FD;" d="M416.152,271.349c-4.784,0-8.663-3.879-8.663-8.663l0,0c0-4.784,3.879-8.663,8.663-8.663h2.523
					c4.784,0,8.663-3.879,8.663-8.663c0-4.784-3.878-8.663-8.663-8.663h-51.67c-4.784,0-8.663,3.878-8.663,8.663
					c0,4.784,3.878,8.663,8.663,8.663h7.988c4.784,0,8.663,3.879,8.663,8.663l0,0c0,4.784-3.879,8.663-8.663,8.663h-7.988h-16.487
					c-4.784,0-8.663,3.878-8.663,8.663c0,4.784,3.879,8.663,8.663,8.663h92.629c4.784,0,8.663-3.878,8.663-8.663
					c0-4.784-3.878-8.663-8.663-8.663h-16.487H416.152z"/>
			</g>
		</g>
		<g>
			<g>
				<path style="fill:#6D7ADA;" d="M155.925,159.561h-59.31c-3.164,0-5.729-2.565-5.729-5.729v-16.503
					c0-3.164,2.565-5.729,5.729-5.729h59.31c3.164,0,5.729,2.565,5.729,5.729v16.503
					C161.654,156.995,159.089,159.561,155.925,159.561z"/>
				<path style="fill:#FEF8FF;" d="M159.425,155.402h-59.31c-3.164,0-5.729-2.565-5.729-5.729V133.17
					c0-3.164,2.565-5.729,5.729-5.729h59.31c3.164,0,5.729,2.565,5.729,5.729v16.503
					C165.154,152.837,162.589,155.402,159.425,155.402z"/>
				
					<text transform="matrix(1 0 0 1 108.0533 148.4375)" style="fill:#D043A1; font-family:'BebasNeue-Regular'; font-size:19.1711px;">BUY</text>
				<circle style="fill:#FFFFFF;" cx="145.734" cy="142.338" r="8.188"/>
				<polygon style="fill:#4450A5;" points="137.546,141.421 142.581,148.438 157.926,133.071 143.12,144.4 				"/>
			</g>
			<g>
				<g>
					<g>
						<path style="fill:#4450A5;" d="M200.345,371.74V114.602c0-10.326,8.371-18.696,18.696-18.696h27.415h86.884
							c10.325,0,18.696,8.37,18.696,18.696V371.74c0,10.325-8.37,18.696-18.696,18.696H219.041
							C208.716,390.436,200.345,382.066,200.345,371.74z"/>
						<path style="fill:#282773;" d="M200.345,145.58L200.345,145.58v-14.06l0,0c-0.984,0-1.782,0.798-1.782,1.782v10.496
							C198.564,144.782,199.362,145.58,200.345,145.58z"/>
						<path style="fill:#282773;" d="M200.345,182.625L200.345,182.625v-26.598l0,0c-0.984,0-1.782,0.798-1.782,1.782v23.034
							C198.564,181.827,199.362,182.625,200.345,182.625z"/>
						<path style="fill:#282773;" d="M352.036,189.693L352.036,189.693c0.984,0,1.782-0.798,1.782-1.782v-37.17
							c0-0.984-0.798-1.782-1.782-1.782l0,0V189.693z"/>
						<path style="fill:#282773;" d="M200.345,213.398L200.345,213.398V186.8l0,0c-0.984,0-1.782,0.798-1.782,1.782v23.034
							C198.564,212.6,199.362,213.398,200.345,213.398z"/>
						<g>
							<path style="fill:#282773;" d="M282.531,110.224h-22.951c-1.313,0-2.378-1.065-2.378-2.378l0,0
								c0-1.313,1.065-2.378,2.378-2.378h22.951c1.313,0,2.378,1.064,2.378,2.378l0,0
								C284.909,109.159,283.845,110.224,282.531,110.224z"/>
							<path style="fill:#282773;" d="M295.178,107.88c0,1.332-1.08,2.412-2.412,2.412c-1.332,0-2.412-1.08-2.412-2.412
								c0-1.332,1.08-2.412,2.412-2.412C294.098,105.468,295.178,106.548,295.178,107.88z"/>
						</g>
					</g>
					<g>
						<path style="fill:#AEA6FB;" d="M333.269,103.35h-12.605c-1.975,0-3.781,1.157-4.667,2.99l-4.376,9.055
							c-1.347,2.787-4.093,4.547-7.096,4.547h-56.668c-3.003,0-5.749-1.76-7.096-4.547l-4.376-9.055
							c-0.886-1.833-2.692-2.99-4.667-2.99h-12.605c-6.406,0-11.599,5.392-11.599,12.044v255.554
							c0,6.652,5.193,12.044,11.598,12.044h114.157c6.406,0,11.599-5.392,11.599-12.045V115.394
							C344.868,108.742,339.675,103.35,333.269,103.35z"/>
					</g>
				</g>
			</g>
			<g>
				<g>
					<path style="fill:#7125B2;" d="M160.745,288.812c1.365,0.683,2.935,0.822,4.373,1.334c1.438,0.512,2.867,1.616,2.972,3.139
						c0.048,0.691-0.186,1.365-0.337,2.041c-0.687,3.088,0.579,6.464,2.983,8.491l-0.289-17.436l-12.096-1.449
						C157.905,286.393,159.38,288.129,160.745,288.812z"/>
					<path style="fill:#8F55C5;" d="M214.195,332.47l-19.822-60.781c-8.894,6.451-20.722,8.901-31.367,6.041
						c-6.688-1.797-12.685-5.425-18.491-9.247l6.57,145.751h21.126l-1.475-110.417c-2.403-2.027-3.669-5.403-2.983-8.491
						c0.15-0.676,0.384-1.35,0.337-2.041c-0.105-1.523-1.534-2.627-2.972-3.139c-1.438-0.512-3.007-0.651-4.373-1.334
						c-1.365-0.683-2.841-2.419-2.395-3.879l12.096,1.449l3.565-0.335l13.402-3.801c0.092,1.277-1.029,2.622-2.113,3.302
						c-1.084,0.68-2.338,1.05-3.437,1.705c-1.1,0.655-2.091,1.736-2.087,3.016c0.007,2.358,3.206,3.722,3.301,6.078
						c0.066,1.649-1.436,2.955-1.749,4.575c-0.417,2.157,1.301,4.054,2.531,5.875c2.637,3.902,3.185,9.05,1.715,13.504l9.723,28.221
						l4.387,65.695l19.81-7.713l-2.055-55.802C217.21,344.503,216.118,338.367,214.195,332.47z"/>
					<path style="fill:#7125B2;" d="M194.373,271.689l-3.886-12.135h-46.445l0.472,8.929c5.807,3.822,11.804,7.45,18.491,9.247
						C173.651,280.59,185.48,278.14,194.373,271.689z"/>
					<path style="fill:#7125B2;" d="M183.859,306.797c-1.23-1.82-2.948-3.718-2.531-5.875c0.313-1.62,1.816-2.926,1.749-4.575
						c-0.095-2.357-3.294-3.72-3.301-6.078c-0.004-1.28,0.987-2.361,2.087-3.016c1.1-0.655,2.353-1.025,3.437-1.705
						c1.084-0.68,2.206-2.026,2.113-3.302l-13.402,3.801l11.562,34.255C187.043,315.847,186.495,310.699,183.859,306.797z"/>
				</g>
				<g>
					<polygon style="fill:#F3A964;" points="190.483,211.526 191.005,219.834 193.769,219.834 190.731,211.526 					"/>
					<polygon style="fill:#F3A964;" points="140.801,213.501 138.927,219.834 141.035,219.834 					"/>
					<polygon style="fill:#CC735A;" points="190.431,210.707 190.483,211.526 190.731,211.526 					"/>
					<path style="fill:#F6C572;" d="M141.919,264.026c4.504,2.352,8.592,4.211,12.332,5.66h32.392
						c2.332-1.588,4.364-3.534,6.248-5.66l-0.1-2.649h-50.908L141.919,264.026z"/>
					<path style="fill:#F3A964;" d="M186.643,269.685h-32.392C170.3,275.902,179.781,274.357,186.643,269.685z"/>
					<polygon style="fill:#F3A964;" points="141.653,244.76 192.163,244.76 191.85,236.451 141.538,236.451 					"/>
					<polygon style="fill:#F3A964;" points="141.882,261.377 192.79,261.377 192.477,253.068 141.768,253.068 					"/>
					<polygon style="fill:#F6C572;" points="141.768,253.068 192.477,253.068 192.163,244.76 141.653,244.76 					"/>
					<path style="fill:#F6C572;" d="M192.355,201.281c-1.713-3.874-5.55-6.372-9.785-6.372h-11.281l-8.132,2.943l-8.3-2.943
						l-11.231,0.885c-4.341,0.342-8.024,3.285-9.342,7.423h58.927L192.355,201.281z"/>
					<polygon style="fill:#CC735A;" points="196.262,226.652 193.769,219.834 191.005,219.834 191.528,228.143 191.549,228.48 
						192.417,228.143 					"/>
					<polygon style="fill:#F3A964;" points="196.262,226.652 202.503,224.232 200.559,219.834 193.769,219.834 					"/>
					<polygon style="fill:#CC735A;" points="138.927,219.834 136.468,228.143 141.343,228.143 141.035,219.834 					"/>
					<polygon style="fill:#F6C572;" points="193.769,219.834 200.559,219.834 196.885,211.526 190.731,211.526 					"/>
					<path style="fill:#F3A964;" d="M190.431,210.707l0.3,0.819h6.154l-3.674-8.308h-58.927c-0.018,0.056-0.045,0.106-0.062,0.162
						l-2.45,8.147h58.711L190.431,210.707z"/>
					<polygon style="fill:#F6C572;" points="141.343,228.143 141.471,231.609 141.538,236.451 191.85,236.451 191.549,228.48 
						191.528,228.143 					"/>
					<polygon style="fill:#F3A964;" points="141.343,228.143 191.528,228.143 191.005,219.834 141.035,219.834 					"/>
					<polygon style="fill:#F6C572;" points="140.801,213.501 141.035,219.834 191.005,219.834 190.483,211.526 131.772,211.526 
						129.273,219.834 138.927,219.834 					"/>
					<polygon style="fill:#F6C572;" points="126.774,228.143 126.269,229.821 135.645,230.924 136.468,228.143 					"/>
					<polygon style="fill:#F3A964;" points="138.927,219.834 129.273,219.834 126.774,228.143 136.468,228.143 					"/>
					<polygon style="fill:#F3A964;" points="136.468,228.143 135.645,230.924 141.471,231.609 141.343,228.143 					"/>
				</g>
				<path style="fill:#EBADD0;" d="M168.969,214.842l10.255-5.219c1.261-0.642,2.805-0.166,3.484,1.076l6.828,12.465l16.71,21.937
					c2.137,2.806,1.619,6.809-1.162,8.978l0,0c-3.193,2.49-7.864,1.451-9.699-2.159l-13.339-26.236l-1.236,0.281
					c-1.685,0.383-3.373-0.627-3.831-2.293l-2.199-7.993l-5.254,1.733L168.969,214.842z"/>
				<polygon style="fill:#D790B6;" points="199.967,225.215 206.247,245.102 193.121,227.87 				"/>
				<g>
					<path style="fill:#282773;" d="M172.4,212.12l0.001-0.011c0-0.004-0.001-0.007-0.001-0.011v-0.168h-0.018
						c-0.027-0.648-0.537-1.185-1.206-1.185h-12.349c-0.67,0-1.179,0.537-1.206,1.185h-0.026v2.096h0.211l1.695,15.956
						c0.074,0.693,0.659,1.219,1.356,1.219h8.291c0.697,0,1.282-0.526,1.356-1.219l1.695-15.956h0.203V212.12z"/>
					<path style="fill:#4450A5;" d="M169.146,233.392h-8.291c-0.697,0-1.282-0.526-1.356-1.219l-1.899-17.873
						c-0.077-0.728,0.493-1.363,1.226-1.363h12.349c0.732,0,1.303,0.635,1.226,1.363l-1.899,17.873
						C170.429,232.866,169.844,233.392,169.146,233.392z"/>
					<path style="fill:#282773;" d="M166.22,217.027c-0.094,0.717-0.636,1.222-1.222,1.222s-1.128-0.505-1.222-1.222
						c-0.112-0.848,0.426-1.659,1.222-1.659C165.793,215.368,166.331,216.178,166.22,217.027z"/>
				</g>
				<g>
					<path style="fill:#D790B6;" d="M131.369,243.542l7.558-4.276l1.161-5.669C135.923,235.447,132.698,239.151,131.369,243.542z"/>
					<path style="fill:#EBADD0;" d="M173.829,221.935c-0.266-0.96-0.926-1.861-1.872-2.172c-0.945-0.31-1.995,0.017-2.828,0.559
						c-0.834,0.542-1.515,1.283-2.278,1.92c-2.234,1.864-5.237,2.43-8.147,2.43l-0.682-6.423c-2.912,1.848-3.918,6.446-1.794,9.149
						l-17.3,11.869l-7.558,4.276c1.329-4.391,4.554-8.095,8.719-9.944l0.43-2.1l-12.661-1.49l-3.365,17.627
						c-1.122,5.876,5.658,9.987,10.349,6.276l26.891-21.268c1.604,0.132,3.829,0.407,5.424,0.198c1.595-0.21,3.187-0.79,4.344-1.907
						c1.589-1.535,2.145-3.839,2.406-6.032C174.024,223.913,174.095,222.895,173.829,221.935z"/>
				</g>
				<g>
					<g>
						<circle style="fill:#D790B6;" cx="145.173" cy="180.117" r="5.192"/>
						<circle style="fill:#D790B6;" cx="180.356" cy="180.117" r="5.192"/>
					</g>
					<path style="fill:#272A70;" d="M146.223,179.211c-3.159-3.32-5.289-6.984-5.815-11.536c-0.14-1.21-0.171-2.464,0.231-3.614
						c0.402-1.149,1.308-2.182,2.495-2.452c-0.644-3.013-0.038-6.353,1.813-8.817c1.851-2.464,4.799-4.07,7.872-4.29
						c3.181-3.437,7.76-5.451,12.44-5.275c4.68,0.176,9.238,2.482,12.152,6.148c2.575-0.229,5.078,2.453,5.859,4.917
						s0.331,5.145-0.372,7.633c3.376,2.66,2.646,11.817-3.643,17.489L146.223,179.211z"/>
					<g>
						<path style="fill:#D790B6;" d="M157.288,186.618v6.555c1.824,1.173,3.996,1.811,6.165,1.729
							c1.984-0.075,3.93-0.745,5.572-1.858v-6.425H157.288z"/>
						<path style="fill:#EBADD0;" d="M169.025,194.909v-1.865c-1.642,1.114-3.588,1.784-5.572,1.858
							c-2.169,0.082-4.341-0.555-6.165-1.729v1.736h-2.431c1.844,4.518,5.952,4.787,8.216,4.787c2.264,0,6.623-0.587,8.216-4.787
							H169.025z"/>
					</g>
					<path style="fill:#EBADD0;" d="M176.143,167.208c-3.013-0.606-5.672-2.995-6.363-5.99c-3.55,2.021-8.2,1.897-11.669-0.259
						c-1.532,3.805-5.054,6.673-9.122,7.201c0.671,3.853-0.386,7.956-2.767,11.051c1.901,7.373,8.576,12.828,16.542,12.828
						c7.894,0,14.521-5.356,16.49-12.627C176.795,175.914,175.643,171.453,176.143,167.208z"/>
				</g>
				<rect x="149.709" y="414.234" style="fill:#A363E2;" width="23.508" height="7.042"/>
				<g>
					<path style="fill:#282773;" d="M168.41,421.276h-15.761l-1.502,3.655c-0.101,0.247-0.246,0.468-0.365,0.705h18.103
						L168.41,421.276z"/>
					<path style="fill:#4450A5;" d="M168.886,425.636h-18.103c-0.974,1.932-2.498,3.538-4.427,4.546h0
						c-1.984,1.036-3.541,2.669-4.501,4.62h28.03L168.886,425.636z"/>
					<path style="fill:#282773;" d="M141.855,434.802c-0.547,1.113-0.904,2.327-1.024,3.598l-0.03,0.314h29.51l-0.426-3.912H141.855
						z"/>
				</g>
				<polygon style="fill:#A363E2;" points="220.5,406.112 198.678,414.608 200.044,421.986 221.866,413.49 				"/>
				<g>
					<path style="fill:#282773;" d="M236.172,433.673l-11.009,0.768c-4.352,0.304-8.646-1.134-11.938-3.996h0
						c-1.987-1.728-4.359-2.953-6.918-3.573l-3.331-0.808l-0.585,4.138l3.699,0.897c2.417,0.586,4.658,1.743,6.535,3.375
						c3.11,2.704,7.166,4.062,11.277,3.775l12.806-0.893v-0.42C236.708,435.808,236.509,434.714,236.172,433.673z"/>
					<path style="fill:#4450A5;" d="M213.225,430.444L213.225,430.444c3.292,2.862,7.586,4.3,11.938,3.996l11.009-0.768
						c-0.805-2.485-2.495-4.634-4.834-5.963l-4.823-2.74c-2.444-1.388-4.332-3.58-5.343-6.203l-0.01-0.026l-17.684,3.773
						l-0.502,3.549l3.331,0.808C208.866,427.491,211.238,428.717,213.225,430.444z"/>
					<polygon style="fill:#282773;" points="219.494,414.413 203.758,420.54 203.478,422.515 221.162,418.741 					"/>
				</g>
			</g>
			<g>
				<polygon style="fill:#EB62A3;" points="209.358,52.714 172.29,98.032 213.924,98.032 236.138,52.714 				"/>
				<polygon style="fill:#FEF8FF;" points="236.138,52.714 213.924,98.032 255.466,98.032 262.86,52.714 				"/>
				<polygon style="fill:#EB62A3;" points="343.024,52.714 316.302,52.714 338.549,98.032 380.091,98.032 				"/>
				<polygon style="fill:#EB62A3;" points="262.86,52.714 255.466,98.032 297.008,98.032 289.581,52.714 				"/>
				<polygon style="fill:#FEF8FF;" points="289.581,52.714 297.008,98.032 338.549,98.032 316.302,52.714 				"/>
			</g>
			<g>
				<path style="fill:#D043A1;" d="M202.193,110.627h-18.23c-6.447,0-11.672-5.226-11.672-11.672v-0.922h41.575v0.922
					C213.865,105.401,208.639,110.627,202.193,110.627z"/>
				<path style="fill:#EFDFEC;" d="M243.768,110.627h-18.23c-6.447,0-11.672-5.226-11.672-11.672v-0.922h41.575v0.922
					C255.441,105.401,250.215,110.627,243.768,110.627z"/>
				<path style="fill:#D043A1;" d="M285.343,110.627h-18.23c-6.447,0-11.672-5.226-11.672-11.672v-0.922h41.575v0.922
					C297.016,105.401,291.79,110.627,285.343,110.627z"/>
				<path style="fill:#EFDFEC;" d="M326.918,110.627h-18.23c-6.447,0-11.672-5.226-11.672-11.672v-0.922h41.575v0.922
					C338.591,105.401,333.365,110.627,326.918,110.627z"/>
				<path style="fill:#D043A1;" d="M368.494,110.627h-18.23c-6.447,0-11.672-5.226-11.672-11.672v-0.922h41.575v0.922
					C380.166,105.401,374.94,110.627,368.494,110.627z"/>
			</g>
			<g>
				<g>
					<path style="fill:#7369F4;" d="M211.944,163.344c-4.515,2.306-6.306,7.835-4,12.35l38.616,75.612
						c2.306,4.515,7.835,6.306,12.35,4l25.699-13.125l44.995-138.928L211.944,163.344z"/>
					<path style="fill:#605CED;" d="M340.29,97.795l-10.685,5.457L284.61,242.18l102.647-52.423c4.515-2.306,6.306-7.835,4-12.35
						l-38.616-75.612C350.334,97.28,344.805,95.49,340.29,97.795z"/>
				</g>
				
					<text transform="matrix(0.8906 -0.4548 0.4548 0.8906 219.0038 177.5401)" style="fill:#F7D0EE; font-family:'Montserrat-SemiBold'; font-size:8.7653px;">CREDIT CARD</text>
				<path style="fill:#F6C572;" d="M263.99,189.973l-27.135,13.858c-1.476,0.754-3.283,0.168-4.036-1.307l-8.19-16.036
					c-0.754-1.476-0.168-3.283,1.307-4.036l27.136-13.859c1.475-0.754,3.283-0.168,4.036,1.307l8.19,16.036
					C266.051,187.412,265.465,189.219,263.99,189.973z"/>
				<g>
					
						<rect x="238.884" y="206.683" transform="matrix(0.8906 -0.4548 0.4548 0.8906 -67.9759 138.7721)" style="fill:#4450A5;" width="31.081" height="7.957"/>
					
						<rect x="271.76" y="189.892" transform="matrix(0.8906 -0.4548 0.4548 0.8906 -56.7414 151.8871)" style="fill:#4450A5;" width="31.081" height="7.957"/>
					
						<rect x="304.636" y="173.102" transform="matrix(0.8906 -0.4548 0.4548 0.8906 -45.5072 165.0031)" style="fill:#4450A5;" width="31.081" height="7.957"/>
					
						<rect x="337.513" y="156.311" transform="matrix(0.8906 -0.4548 0.4548 0.8906 -34.2729 178.1185)" style="fill:#4450A5;" width="31.081" height="7.957"/>
				</g>
				
					<rect x="311.215" y="176.525" transform="matrix(-0.8906 0.4548 -0.4548 -0.8906 730.0717 182.2506)" style="fill:#F7D0EE;" width="63.796" height="4.84"/>
				
					<rect x="333.38" y="179.567" transform="matrix(-0.8906 0.4548 -0.4548 -0.8906 754.8385 182.0127)" style="fill:#F7D0EE;" width="44.29" height="4.477"/>
				
					<rect x="337.033" y="186.72" transform="matrix(-0.8906 0.4548 -0.4548 -0.8906 764.9985 193.8744)" style="fill:#F7D0EE;" width="44.29" height="4.477"/>
			</g>
			<g>
				<g>
					<g>
						
							<rect x="223.15" y="269.114" transform="matrix(0.9802 -0.198 0.198 0.9802 -49.2891 65.7976)" style="fill:#FEF8FF;" width="162.474" height="20.526"/>
						<path style="fill:#D043A1;" d="M231.908,330.86c1.004,4.969,5.846,8.184,10.815,7.18l141.262-28.534
							c4.969-1.004,8.184-5.846,7.18-10.815l-5.118-25.338L226.79,305.522L231.908,330.86z"/>
						<path style="fill:#D043A1;" d="M374.41,215.74c-1.004-4.969-5.846-8.184-10.815-7.18l-70.631,14.267l-70.631,14.267
							c-4.969,1.004-8.184,5.846-7.18,10.815l1.528,7.567l159.257-32.169L374.41,215.74z"/>
						
							<rect x="219.779" y="255.92" transform="matrix(0.9802 -0.198 0.198 0.9802 -46.0512 64.7998)" style="fill:#D043A1;" width="162.474" height="13.531"/>
						<g>
							<polygon style="fill:#282773;" points="216.681,255.475 220.047,272.138 259.508,264.168 272.805,244.139 							"/>
							<polygon style="fill:#4450A5;" points="272.805,244.139 259.508,264.168 279.903,260.048 293.2,240.019 							"/>
							<polygon style="fill:#282773;" points="375.938,223.306 329.83,232.62 316.532,252.649 379.304,239.969 							"/>
							<polygon style="fill:#4450A5;" points="319.151,234.777 305.854,254.806 316.532,252.649 329.83,232.62 							"/>
							<polygon style="fill:#282773;" points="293.2,240.019 279.903,260.048 305.854,254.806 319.151,234.777 							"/>
						</g>
					</g>
					
						<rect x="236.849" y="304.06" transform="matrix(0.9802 -0.198 0.198 0.9802 -55.3609 59.2779)" style="fill:#C0228A;" width="63.796" height="4.84"/>
					
						<rect x="238.665" y="314.202" transform="matrix(0.9802 -0.198 0.198 0.9802 -57.4904 57.9035)" style="fill:#C0228A;" width="44.29" height="4.477"/>
					
						<rect x="240.255" y="322.075" transform="matrix(0.9802 -0.198 0.198 0.9802 -59.0177 58.3742)" style="fill:#C0228A;" width="44.29" height="4.477"/>
					
						<rect x="359.235" y="290.11" transform="matrix(0.9802 -0.198 0.198 0.9802 -51.5775 78.7531)" style="fill:#F6C572;" width="17.594" height="14.381"/>
				</g>
				<path style="fill:#282773;" d="M359.426,266.548c-0.355-0.362-0.936-0.367-1.298-0.014c-6.962,6.816-16.918,10.441-26.631,9.694
					c-0.681-0.052-1.362-0.124-2.044-0.196c-1.997-0.212-4.061-0.431-6.132-0.152c-2.317,0.311-5.075,1.477-6.488,3.812
					c-1.921-1.25-4.394-1.616-6.588-0.924c-2.097,0.663-3.841,2.261-4.736,4.253c-2.214-1.715-5.301-2.323-7.975-1.47
					c-1.818,0.581-3.399,1.824-4.48,3.404c-0.254-0.598-0.594-1.174-1.015-1.71c-1.395-1.773-3.441-2.786-5.471-2.708
					c-0.684,0.025-1.359,0.174-2.002,0.432c-1.887-2.305-5.19-3.063-7.827-2.562c-2.739,0.512-5.362,2.19-7.849,4.972
					c-3.183,3.562-5.387,7.914-6.373,12.588c-0.105,0.496,0.212,0.983,0.708,1.087c0.126,0.027,0.252,0.026,0.371,0.002
					c0.348-0.07,0.638-0.341,0.716-0.711c0.921-4.36,2.977-8.421,5.946-11.744c2.212-2.474,4.516-3.962,6.823-4.392
					c1.923-0.366,4.397,0.14,5.86,1.694c-0.614,0.476-1.167,1.065-1.625,1.748c-1.257,1.874-1.59,4.132-0.89,6.04l0.247,0.675
					l0.715-0.079c1.553-0.174,2.914-1.147,3.744-2.678c0.862-1.589,0.998-3.476,0.387-5.038c0.366-0.12,0.742-0.188,1.118-0.203
					c1.445-0.055,2.925,0.696,3.958,2.009c0.827,1.051,1.237,2.295,1.166,3.464c-0.079,0.333-0.137,0.671-0.173,1.011l1.796,0.346
					c0.099-0.349,0.164-0.707,0.196-1.069c0.575-2.218,2.327-4.134,4.512-4.831c2.48-0.796,5.42,0.016,7.146,1.97l1.194,1.352
					l0.39-1.761c0.44-1.984,2.038-3.729,3.976-4.342c1.939-0.609,4.25-0.104,5.751,1.266l1.01,0.923l0.47-1.285
					c0.846-2.311,3.51-3.45,5.536-3.722c1.851-0.25,3.717-0.052,5.693,0.158c0.7,0.074,1.399,0.148,2.097,0.202
					c10.233,0.784,20.721-3.032,28.055-10.213C359.775,267.491,359.781,266.91,359.426,266.548z M283.519,286.737
					c-0.389,0.718-0.94,1.246-1.571,1.523c-0.173-1.171,0.14-2.46,0.894-3.584c0.304-0.454,0.661-0.852,1.054-1.184
					C284.202,284.503,284.07,285.72,283.519,286.737z"/>
			</g>
			<g>
				<path style="fill:#6D7ADA;" d="M76.117,297.026c-8.895,0-16.107,9.662-16.107,21.58v10.216h32.213v-10.216
					C92.224,306.688,85.012,297.026,76.117,297.026z"/>
				<path style="fill:#EEEFFE;" d="M125.467,414.318v-8.693h31.189v-87.02c0-11.918-7.211-21.58-16.106-21.58h-38.125H92.224H76.117
					c8.895,0,16.106,9.662,16.106,21.58v10.216v85.496c0,11.919,7.211,21.58,16.106,21.58h1.031
					C118.256,435.898,125.467,426.237,125.467,414.318z"/>
				<path style="fill:#6D7ADA;" d="M156.656,405.625h-31.189v8.693c0,11.919-7.211,21.58-16.106,21.58h47.295h7.941
					c8.895,0,16.106-9.662,16.106-21.58v-8.693H156.656z"/>
				<g>
					
						<line style="fill:none;stroke:#EEEFFE;stroke-width:0;stroke-linecap:round;stroke-linejoin:round;" x1="92.224" y1="328.822" x2="92.224" y2="318.606"/>
					<rect x="99.538" y="317.254" style="fill:#BEB9F8;" width="30.772" height="4.419"/>
					<rect x="139.282" y="317.254" style="fill:#BEB9F8;" width="10.958" height="4.419"/>
					<rect x="99.538" y="328.866" style="fill:#BEB9F8;" width="21.174" height="4.419"/>
					<rect x="139.282" y="328.866" style="fill:#BEB9F8;" width="10.958" height="4.419"/>
					<rect x="99.538" y="340.478" style="fill:#BEB9F8;" width="33.614" height="4.419"/>
					<rect x="139.282" y="340.478" style="fill:#BEB9F8;" width="10.958" height="4.419"/>
					<rect x="99.538" y="352.09" style="fill:#BEB9F8;" width="13.708" height="4.419"/>
					<rect x="139.282" y="352.09" style="fill:#BEB9F8;" width="10.958" height="4.419"/>
					<rect x="99.538" y="363.702" style="fill:#BEB9F8;" width="23.535" height="4.419"/>
					<rect x="139.282" y="363.702" style="fill:#BEB9F8;" width="10.958" height="4.419"/>
					<rect x="99.538" y="375.314" style="fill:#BEB9F8;" width="26.41" height="4.419"/>
					<rect x="139.282" y="375.314" style="fill:#BEB9F8;" width="10.958" height="4.419"/>
					<rect x="99.538" y="386.926" style="fill:#BEB9F8;" width="50.592" height="4.419"/>
					<rect x="99.538" y="398.538" style="fill:#BEB9F8;" width="35.414" height="4.419"/>
					<rect x="99.538" y="410.15" style="fill:#BEB9F8;" width="19.18" height="4.419"/>
				</g>
			</g>
			<g>
				<g>
					<rect x="237.618" y="376.598" style="fill:#F6C572;" width="67.142" height="61.688"/>
					<rect x="304.76" y="376.598" style="fill:#F3A964;" width="34.812" height="61.688"/>
					<rect x="262.78" y="376.598" style="fill:#5A678A;" width="14.182" height="12.238"/>
					<rect x="315.074" y="376.598" style="fill:#5A678A;" width="14.182" height="12.238"/>
					<g>
						<rect x="242.5" y="422.903" style="fill:#5A678A;" width="22.266" height="3.12"/>
						<rect x="242.5" y="428.15" style="fill:#5A678A;" width="16.558" height="3.12"/>
					</g>
					<rect x="284.284" y="416.678" style="fill:#F3A964;" width="14.654" height="14.592"/>
				</g>
				<g>
					<rect x="322.166" y="376.598" style="fill:#F6C572;" width="67.142" height="61.688"/>
					<rect x="389.307" y="376.598" style="fill:#F3A964;" width="34.812" height="61.688"/>
					<rect x="347.328" y="376.598" style="fill:#5A678A;" width="14.182" height="12.238"/>
					<rect x="399.622" y="376.598" style="fill:#5A678A;" width="14.182" height="12.238"/>
					<g>
						<rect x="327.047" y="422.903" style="fill:#5A678A;" width="22.266" height="3.12"/>
						<rect x="327.047" y="428.15" style="fill:#5A678A;" width="16.558" height="3.12"/>
					</g>
					<rect x="368.832" y="416.678" style="fill:#F3A964;" width="14.654" height="14.592"/>
				</g>
				<g>
					<rect x="273.05" y="330.326" style="fill:#F6C572;" width="67.142" height="46.272"/>
					<rect x="340.192" y="330.326" style="fill:#F3A964;" width="34.812" height="46.272"/>
					<rect x="298.212" y="330.326" style="fill:#5A678A;" width="14.182" height="12.238"/>
					<rect x="350.506" y="330.326" style="fill:#5A678A;" width="14.182" height="12.238"/>
					<g>
						<rect x="277.932" y="361.215" style="fill:#5A678A;" width="22.266" height="3.12"/>
						<rect x="277.932" y="366.462" style="fill:#5A678A;" width="16.558" height="3.12"/>
					</g>
					<rect x="319.716" y="354.99" style="fill:#F3A964;" width="14.654" height="14.592"/>
				</g>
			</g>
		</g>
		<path style="fill:#D4D5FD;" d="M435.489,438.286H48.641c-2.485,0-4.5,2.015-4.5,4.5c0,2.485,2.015,4.5,4.5,4.5h386.849
			c2.485,0,4.5-2.015,4.5-4.5C439.989,440.301,437.975,438.286,435.489,438.286z"/>
	</g>
</g>
</svg>
