<?xml version="1.0" encoding="utf-8"?>
<!-- Generator: Adobe Illustrator 27.5.0, SVG Export Plug-In . SVG Version: 6.00 Build 0)  -->
<svg version="1.1" xmlns="http://www.w3.org/2000/svg" xmlns:xlink="http://www.w3.org/1999/xlink" x="0px" y="0px"
	 viewBox="0 0 1000 800" style="enable-background:new 0 0 1000 800;" xml:space="preserve">
<g id="Background">
	<rect x="0" y="0" style="fill:#FFFFFF;" width="1000" height="800"/>
</g>
<g id="Shadow">
	<g>
		<path style="fill:#F7F7F7;" d="M456.999,611.03c-27.109,0.1-54.218,0.907-81.279,4.635c-10.203,1.405-20.193,4.497-30.419,5.744
			c-20.427,2.491-40.489,7.138-60.988,9.281c-16.508,1.726-33.085,2.745-49.545,4.935c-15.432,2.053-32.517,1.58-47.83-1.813
			c-11.337-2.511-22.725-3.925-33.872-7.958c-12.469-4.512-26.015-7.738-39.006-7.622c-18.526,0.165-36.567,0.185-54.295,8.152
			c-6.223,2.797-13.842,7.394-18.568,13.263c-10.819,13.436-12.283,46.961-1.481,60.896c18.194,23.453,57.026,32.656,82.528,33.09
			c27.946,0.476,55.094-2.093,83.081-3.604c26.006-1.404,51.947-3.401,77.995-3.331c53.202,0.144,106.411,0,159.517-4.401
			c49.894-4.135,99.914-2.716,149.917-2.716c51.276,0,102.206,0.499,153.113,8.939c22.181,3.678,44.778,4.965,67.069,7.541
			c19.964,2.308,39.149-0.045,59.034-2.178c16.697-1.791,33.285-7.102,48.454-16.081c12.008-7.107,33.414-29.186,37.096-46.151
			c10.323-47.559-145.485-46.416-169.408-46.309c-26.762,0.12-53.736,1.21-80.477-0.054c-11.248-0.531-22.331-3.254-33.31-6.238
			c-10.935-2.972-21.952-2.216-33.042-3.465c-46.243-5.208-92.59-4.447-138.98-4.447
			C487.207,611.138,472.103,610.974,456.999,611.03z"/>
	</g>
</g>
<g id="Object">
	<g>
		<g>
			<g>
				<polygon style="fill:#587BC9;" points="881.157,462.859 883.883,526.086 875.892,633.593 863.934,634.442 849.406,536.801 
					829.309,454.177 				"/>
				<polygon style="fill:#556362;" points="864.362,639.48 877.752,645.026 883.758,638.102 876.833,632.096 863.902,633.014 				
					"/>
			</g>
			<g>
				<polygon style="fill:#587BC9;" points="796.511,440.486 793.887,488.278 801.673,630.382 813.646,630.98 831.59,537.779 
					847.417,435.571 				"/>
				<polygon style="fill:#556362;" points="813.325,636.025 800.054,641.852 793.904,635.055 800.701,628.905 813.648,629.552 				
					"/>
			</g>
			<g>
				<path style="fill:#3B455A;" d="M884.29,303.692l-36.169-10.184c0,0-20.864-1.28-43.009,45.033
					c-12.321,25.766-21.898,68.027-27.972,100.454c0.085,4.786,1.698,25.964,23.654,26.135c37.704,0.295,58.241-2.318,73.723,3.349
					c13.114,5.265,15.136-13.675,16.062-28.234l2.069-45.18L884.29,303.692z"/>
			</g>
			<g>
				<path style="fill:#A0675C;" d="M884.94,256.634c-8.938-3.619-18.184-7.071-27.79-6.804c-2.104,0.058-4.409,0.397-5.811,1.967
					c-0.543,0.608-0.902,1.355-1.243,2.096c-3.822,8.322-8.985,20.742-4.606,29.747c0.835,1.717,2.099,3.182,3.512,4.437
					c1.888,1.677,4.074,2.971,6.412,3.858c-0.867,2.083-1.923,4.088-3.151,5.98c1.582,3.565,11.433,5.628,13.787,2.866
					c0.553-2.641,1.106-5.283,1.659-7.924c1.29-0.283,2.556-0.679,3.773-1.214c4.71-2.074,8.219-5.836,10.644-10.3
					c2.64-4.86,5.955-9.344,8.458-14.33c0.912-1.816,1.746-3.924,1.031-5.827c-0.761-2.025-2.97-3.045-4.974-3.861
					C886.074,257.095,885.508,256.864,884.94,256.634z"/>
				<path style="fill:#3B455A;" d="M853.192,256.387c5.089-2.174,12.189-2.279,16.451-1.236
					c12.886,3.154,16.043,13.544,14.709,25.657c4.367-3.959,12.085-8.563,13.487-14.372c1.148-4.755,1.593-11.428-0.398-16.04
					c-1.864-4.315-7.952-7.542-11.405-10.444c-3.256-2.736-6.511-5.472-9.767-8.207c-0.677-0.569-1.374-1.149-2.208-1.444
					c-0.986-0.348-2.066-0.264-3.108-0.175c-8.919,0.762-17.837,1.523-26.756,2.285c-1.713,0.146-3.688,0.449-4.561,1.931
					c-0.531,0.901-0.497,2.014-0.447,3.059c0.219,4.6,1.314,9.449,1.014,14.02c0.08,2.699-0.629,16.343,4.255,15.581
					c1.733-1.99,2.399-4.689,3.859-6.887C849.394,258.491,851.128,257.268,853.192,256.387z"/>
			</g>
			<polygon style="fill:#3B455A;" points="848.121,293.508 833.804,295.347 775.259,339.021 769.393,355.686 786.518,398.96 
				795.373,385.66 790.221,354.95 808.108,346.409 837.538,302.068 			"/>
			<polygon style="fill:#3B455A;" points="875.943,305.52 905.896,282.452 912.484,207.303 924.437,204.3 926.839,282.069 
				919.034,300.029 884.016,334.384 			"/>
			<polygon style="fill:#A0675C;" points="921.879,204.943 923.028,198.156 916.961,186.489 910.801,190.358 912.75,200.142 
				909.998,202.931 912.484,207.303 			"/>
		</g>
		<g>
			<rect x="121.001" y="196.516" style="fill:#E3E3E3;" width="704.258" height="444.267"/>
			<rect x="121.001" y="161.887" style="fill:#3B455A;" width="704.258" height="26.656"/>
			<rect x="121.001" y="188.543" style="fill:#7DB5DB;" width="704.258" height="34.991"/>
			<rect x="193.921" y="201.384" style="fill:#FFFFFF;" width="598.928" height="14.938"/>
			<g>
				<path style="fill:#F7F7F7;" d="M150.48,174.109c0,2.422-1.996,4.385-4.457,4.385c-2.462,0-4.457-1.963-4.457-4.385
					c0-2.422,1.995-4.385,4.457-4.385C148.485,169.725,150.48,171.688,150.48,174.109z"/>
				<path style="fill:#D7E8F4;" d="M163.533,174.109c0,2.422-1.996,4.385-4.457,4.385c-2.462,0-4.457-1.963-4.457-4.385
					c0-2.422,1.995-4.385,4.457-4.385C161.538,169.725,163.533,171.688,163.533,174.109z"/>
				<path style="fill:#7DB5DB;" d="M176.587,174.109c0,2.422-1.995,4.385-4.457,4.385c-2.462,0-4.457-1.963-4.457-4.385
					c0-2.422,1.996-4.385,4.457-4.385C174.591,169.725,176.587,171.688,176.587,174.109z"/>
			</g>
			<g style="opacity:0.36;">
				<polygon style="fill:#FFFFFF;" points="169.592,201.686 169.592,216.02 174.777,208.853 				"/>
				<polygon style="fill:#FFFFFF;" points="148.561,216.02 148.561,201.686 143.375,208.853 				"/>
			</g>
		</g>
		<g>
			<g id="XMLID_295_">
				<polygon style="fill:#3B455A;" points="105.238,685.156 104.431,692.619 118.548,701.695 126.817,695.04 120.162,686.771 
					106.045,677.694 				"/>
				<polygon style="fill:#3B455A;" points="139.11,683.344 138.303,690.807 152.42,699.883 160.689,693.228 154.034,684.959 
					139.917,675.882 				"/>
				<g id="XMLID_297_">
					<g id="XMLID_306_">
						<polygon style="fill:#40495F;" points="78.706,540.841 93.754,607.685 103.003,686.389 120.278,684.774 127.299,493.705 
							81.044,494.545 						"/>
					</g>
					<g id="XMLID_304_">
						<g id="XMLID_305_">
							<polygon style="fill:#40495F;" points="167.271,536.754 169.213,601.64 156.311,684.774 138.303,682.892 135.83,596.969 
								122.987,538.079 118.675,499.531 157.187,494.988 							"/>
						</g>
					</g>
					<g id="XMLID_303_">
						<polygon style="fill:#BCBEC0;" points="136.805,362.195 95.314,361.204 71.258,405.944 79.809,447.849 81.331,497.997 
							140.516,498.805 159.99,495.643 154.819,442.061 157.783,370.484 						"/>
					</g>
					<g id="XMLID_302_">
						<polygon style="fill:#EAC2A7;" points="91.314,468.808 91.089,475.806 103.441,480.302 110.56,474.908 110.565,466.762 
							103.692,466.378 103.477,464.586 101.226,463.139 						"/>
					</g>
					<g id="XMLID_301_">
						<polygon style="fill:#BCBEC0;" points="93.938,364.29 47.988,417.151 45.743,440.306 91.067,476.086 99.199,464.319 
							69.886,433.022 98.283,405.222 						"/>
					</g>
					<g id="XMLID_300_">
						<polygon style="fill:#BCBEC0;" points="138.303,389.304 159.914,432.508 183.216,437.139 229.873,430.005 224.149,415.41 
							181.365,415.41 157.206,370.484 						"/>
					</g>
					<g id="XMLID_298_">
						<g id="XMLID_299_">
							<path style="fill:#EAC2A7;" d="M134.207,327.432c-6.255-18.185-30.262-11.37-35.211,4.822
								c-3.229,10.562,4.929,24.269,15.873,27.302c0.048,0.416,0.084,0.804,0.086,1.133c0.008,1.695,0.216,3.367,0.468,5.061
								c0.094,0.632,9.672-1.209,10.74-1.419c0.374-0.074,0.791-0.175,0.992-0.488c0.386-0.602-0.242-2.373-0.312-3.041
								c-0.083-0.789-0.166-1.578-0.248-2.367c5.398-2.635,8.805-8.247,9.756-13.961
								C137.305,338.735,136.087,332.897,134.207,327.432z"/>
						</g>
					</g>
				</g>
				<g id="XMLID_296_">
					<polygon style="fill:#FFFFFF;" points="107.588,361.957 120.459,380.15 126.51,379.654 136.595,361.204 					"/>
				</g>
				<path style="fill:#3B455A;" d="M162.561,314.507c0.718-1.234,1.493-2.426,2.366-3.546c1.89-2.428,4.236-4.523,5.742-7.206
					c1.506-2.683,1.982-6.288,0.062-8.692c-1.239-1.551-3.214-2.3-5.13-2.822c-6.312-1.72-13.086-1.709-19.393,0.032
					c-6.007,1.658-11.359,4.312-17.482,2.165c-5.753-2.018-9.86-1.066-15.786,1.184c-6.412,2.434-15.071,3.152-20.852,6.523
					c-2.414,1.408-4.319,3.57-5.79,5.945c-5.097,8.231-4.901,19.434,0.482,27.482c1.207,1.805,2.642,3.449,4.146,5.016
					c3.113,3.243,6.84,7.251,11.056,8.391c0.024-3.752-3.629-15.506-0.811-18.637c4.472-4.969,14.838-3.475,20.532-2.389
					c6.21,1.185,11.81,5.453,17.959,6.266c4.425,0.584,10.012-1.692,13.717-4.048C157.952,327.261,159.942,319.009,162.561,314.507z
					"/>
			</g>
			<g>
				<polygon style="fill:#3B455A;" points="127.211,489.488 93.652,458.369 188.375,428.256 224.941,459.673 				"/>
				<polygon style="fill:#D7E8F4;" points="127.211,489.488 224.941,459.673 224.941,381.914 127.211,411.729 				"/>
			</g>
		</g>
		<g>
			<polygon style="fill:#40495F;" points="363.684,363.558 389.501,395.755 423.507,376.087 436.547,386.659 409.706,420.714 
				387.952,438.267 356.722,398.037 			"/>
			<g>
				<g>
					<g>
						<polygon style="fill:#5A5751;" points="390.811,467.755 391.925,564.079 381.66,688.079 367.702,688.079 351.001,573.678 
							331.901,459.081 						"/>
						<polygon style="fill:#3B455A;" points="367.783,693.965 382.876,701.511 390.423,693.965 382.876,686.418 367.783,686.418 
													"/>
					</g>
					<g>
						<polygon style="fill:#5A5751;" points="295.117,467.755 294.843,523.482 304.256,688.079 318.214,688.079 341.562,578.853 
							354.027,459.081 						"/>
						<polygon style="fill:#3B455A;" points="318.133,693.965 303.04,701.511 295.493,693.965 303.04,686.418 318.133,686.418 
													"/>
					</g>
				</g>
				<path style="fill:#40495F;" d="M280.602,501.309c-0.299,8.842-0.107,20.669,3.616,21.111c0.697,0.083,1.369-0.226,1.983-0.524
					c6.473-3.145,11.088-7.59,17.47-10.629c6.687-3.184,14.288-4.85,21.716-6.001c11.079-1.769,22.341-2.832,33.492-2.932
					c9.583-0.085,19.55,4.287,28.609,6.691c3.487,0.925,6.324,3.467,9.221,5.46c4.279,2.944,6.155,4.11,5.572-1.905
					c-0.952-9.815-1.941-19.628-3.148-29.415c-2.408-19.521-5.687-38.997-11.234-57.895c-2.119-7.219-4.564-14.339-7.007-21.455
					c-2.976-8.666-5.952-17.332-8.927-25.997c-3.699-10.77-9.941-18.357-20.87-22.125c-9.446-3.256-21.178-4.147-30.366,0.411
					c-10.213,5.066-15.07,22.326-20.032,31.55c-4.348,8.083-9.828,30.128-11.456,38.842c-1.959,10.488-3.768,20.926-5.193,31.337
					c-1.578,11.531-2.69,23.028-3.012,34.457C280.999,493.555,280.744,497.088,280.602,501.309z"/>
				<path style="fill:#FFFFFF;" d="M331.052,357.627l18.862,0.18c0,0,20.24,70.731,20.983,82.922
					c0.73,11.968,5.846,60.493,5.846,60.493s-20.889,0.492-44.957,3.424c-23.529,5.035-25.506,2.058-25.506,2.058
					s12.699-51.001,13.12-65.655c0.431-14.988,2.349-64.488,2.349-64.488L331.052,357.627z"/>
				<g>
					<path style="fill:#EAC2A7;" d="M342.49,357.995c-0.221,0.192-0.477,0.344-0.772,0.441c-0.586,0.193-1.222,0.123-1.835,0.05
						c-2.495-0.295-4.99-0.59-7.485-0.886c0.823-7.641-3.643-9.369-7.996-14.283c-4.411-4.982-3.053-11.699-2.806-17.796
						c0.071-1.698,0.154-3.447,0.872-4.987c1.26-2.703,4.193-4.195,7.041-5.081c7.267-2.258,15.579-1.702,21.978,2.417
						c1.703,1.096,3.293,2.474,4.216,4.277c1.422,2.78,1.061,6.098,0.664,9.195c-0.61,4.761-2.019,9.437-4.711,13.449
						c-2.508,3.739-7.29,5.529-7.84,10.015C343.675,355.966,343.324,357.27,342.49,357.995z"/>
					<g>
						<path style="fill:#3B455A;" d="M356.157,325.808c-0.424,1.92-1.319,3.863-0.853,5.773c3.05-1.035,5.043-4.154,6.123-7.325
							c0.49-1.437,0.845-2.959,0.722-4.48c-0.123-1.521-0.784-3.049-1.984-3.908c-1.675-1.199-4.681-0.728-5.16,1.445
							C354.521,319.504,356.795,322.919,356.157,325.808z"/>
						<path style="fill:#3B455A;" d="M372.348,308.943c-0.072-2.301-0.949-4.356-3.004-5.745c-1.772-1.197-3.816-2.19-4.892-4.092
							c-0.836-1.477-0.958-3.305-1.787-4.786c-1.499-2.682-4.754-3.472-7.586-4.381c-7.083-2.275-10.896-4.901-18.398-1.989
							c-5.333,2.07-12.225,2.348-17.176,5.368c-2.067,1.261-3.826,3.287-5.27,5.544c-5.001,7.819-6.202,18.813-2.944,26.969
							c0.729,1.826,1.655,3.504,2.646,5.111c1.98,3.214,4.102,7.169,7.608,8.742c0.22-1.514,1.348-2.35,1.701-3.838
							c0.254-1.071,0.169-2.194,0.114-3.296c-0.216-4.288-1.531-11.068,2.752-13.195c5.415-2.689,15.572-0.263,20.788,2.013
							c4.615,2.014,12.403,4.634,17.323,2.477C368.789,321.841,372.502,313.857,372.348,308.943z"/>
					</g>
				</g>
			</g>
		</g>
		<g>
			<g id="XMLID_279_">
				<circle id="XMLID_294_" style="fill:#587BC9;" cx="429.09" cy="545.17" r="162.431"/>
				<path id="XMLID_280_" style="fill:#FFFFFF;" d="M546.994,495.359c-6.445-15.238-15.671-28.923-27.421-40.672
					c-11.75-11.75-25.434-20.976-40.672-27.421c-15.78-6.675-32.539-10.059-49.811-10.059s-34.031,3.384-49.811,10.059
					c-15.238,6.445-28.923,15.671-40.672,27.421c-11.75,11.75-20.975,25.434-27.421,40.672
					c-6.674,15.78-10.059,32.539-10.059,49.811c0,17.272,3.384,34.031,10.059,49.811c6.445,15.238,15.671,28.923,27.421,40.672
					c11.75,11.75,25.434,20.975,40.672,27.421c15.78,6.674,32.539,10.059,49.811,10.059s34.031-3.384,49.811-10.059
					c15.238-6.445,28.923-15.671,40.672-27.421c11.75-11.75,20.975-25.434,27.421-40.672c6.674-15.78,10.059-32.539,10.059-49.811
					C557.052,527.898,553.668,511.139,546.994,495.359z M366.894,541.225c0-10.02,1.146-19.829,3.401-29.339h52.355v60.866h-51.942
					C368.176,562.393,366.894,551.848,366.894,541.225z M461.223,457.091c9.242,10.806,16.6,22.576,21.868,34.983
					c0.971,2.287,1.863,4.601,2.692,6.934h-50.254v-65.644C441.559,437.693,451.384,445.589,461.223,457.091z M422.651,434.624
					v64.384h-48.553c0.797-2.243,1.653-4.468,2.582-6.669c5.219-12.367,12.512-24.107,21.679-34.893
					C407.378,446.831,416.482,439.216,422.651,434.624z M422.651,585.629v69.096c-6.125-5.314-14.961-13.807-23.799-25.187
					c-9.306-11.983-16.714-24.71-22.018-37.827c-0.815-2.017-1.581-4.045-2.297-6.082H422.651z M435.529,656.17v-70.54h49.814
					c-0.688,1.957-1.419,3.906-2.199,5.845c-5.261,13.078-12.614,25.773-21.855,37.732
					C451.548,641.81,441.714,650.955,435.529,656.17z M435.529,572.752v-60.866h54.059c2.256,9.511,3.401,19.32,3.401,29.339
					c0,10.622-1.28,21.168-3.813,31.527H435.529z M502.787,511.885h36.523c3.203,10.657,4.864,21.843,4.864,33.284
					c0,9.418-1.129,18.662-3.313,27.582h-38.46c2.304-10.372,3.465-20.911,3.465-31.527
					C505.866,531.235,504.828,521.432,502.787,511.885z M510.467,463.793c10.314,10.314,18.425,22.243,24.106,35.215h-35.202
					c-1.288-4.046-2.758-8.039-4.426-11.967c-5.783-13.619-13.836-26.512-23.935-38.319c-5.222-6.106-10.434-11.271-15.183-15.523
					C476.347,438.058,495.18,448.506,510.467,463.793z M347.713,463.793c15.851-15.851,35.515-26.502,56.921-31.111
					c-4.902,4.347-10.326,9.686-15.761,16.04c-10.098,11.808-18.151,24.7-23.935,38.319c-1.668,3.928-3.138,7.921-4.427,11.967
					h-36.905C329.288,486.036,337.398,474.107,347.713,463.793z M318.869,511.885h38.226c-2.041,9.547-3.079,19.35-3.079,29.339
					c0,10.615,1.161,21.155,3.465,31.527h-40.163c-2.184-8.92-3.313-18.163-3.313-27.582
					C314.005,533.728,315.666,522.543,318.869,511.885z M347.713,626.547c-11.809-11.809-20.728-25.734-26.418-40.917h39.67
					c1.167,3.664,2.473,7.303,3.931,10.909c5.748,14.218,13.751,27.978,23.786,40.899c6.554,8.44,13.088,15.385,18.694,20.776
					C384.907,653.946,364.238,643.073,347.713,626.547z M510.467,626.547c-15.997,15.997-35.876,26.696-57.51,31.236
					c5.504-5.327,11.866-12.131,18.245-20.345c10.035-12.921,18.037-26.681,23.785-40.899c1.458-3.606,2.764-7.245,3.931-10.909
					h37.967C531.194,600.813,522.275,614.738,510.467,626.547z"/>
			</g>
		</g>
		<polygon style="fill:#EAC2A7;" points="426.501,372.368 443.387,369.888 455.058,382.813 447.965,389.141 436.422,383.78 
			430.832,386.431 421.227,381.037 		"/>
		<g>
			<g id="XMLID_259_">
				<g id="XMLID_261_">
					<g id="XMLID_276_">
						<g id="XMLID_278_">
							<path style="fill:#323643;" d="M712.481,678.432c1.291-1.421,2.797-2.196,4.499-1.928c1.634,0.257,3.105,1.365,3.779,2.847
								c0.46,1.01,0.557,2.137,0.648,3.24c0.471,5.705,0.429,19.248-7.17,21.199c-3.193,0.819-5.835-1.45-6.688-4.317
								C706.264,695.151,708.166,683.183,712.481,678.432z"/>
						</g>
						<g id="XMLID_277_">
							<path style="fill:#EAC2A7;" d="M709.778,592.375l0.398,34.795c-0.463,15.455,1.951,30.997,1.488,46.453
								c-0.107,3.554-1.032,7.303-0.137,10.825c0.876,3.446,3.675,4.055,6.55,2.31c3.851-2.338,3.23-7.797,3.871-11.78
								c1.762-10.944,3.828-21.838,5.668-32.77c0.902-5.359-0.957-12.87-0.553-18.294c0-0.003,5.621-29.16,5.621-29.16
								L709.778,592.375z"/>
						</g>
					</g>
					<g id="XMLID_275_">
						<polygon style="fill:#40495F;" points="749.533,536.154 734.39,603.424 731.172,666.95 707.16,666.411 700.63,488.717 
							747.18,489.562 						"/>
					</g>
					<g id="XMLID_270_">
						<g id="XMLID_272_">
							<g id="XMLID_274_">
								<path style="fill:#323643;" d="M678.134,677.168c1.347-1.346,2.881-2.033,4.566-1.665c1.618,0.354,3.036,1.549,3.645,3.072
									c0.415,1.038,0.464,2.172,0.507,3.28c0.226,5.737-0.396,19.289-8.052,20.793c-3.218,0.631-5.754-1.795-6.481-4.715
									C671.223,693.533,673.63,681.668,678.134,677.168z"/>
							</g>
							<g id="XMLID_273_">
								<path style="fill:#EAC2A7;" d="M690.791,597.259l-2.038,34.738c-0.166,9.654-1.453,19.233-2.452,28.822
									c-0.928,8.907,0.516,18.184-4.138,26.285c-1.46,2.54-4.41,4.231-6.472,1.145c-1.589-2.379-0.645-6.346-0.95-9.044
									c-1.244-11.014-2.795-21.992-4.117-32.997c-0.648-5.395,1.563-12.811,1.414-18.248c0-0.004-4.24-29.39-4.24-29.39
									L690.791,597.259z"/>
							</g>
						</g>
						<g id="XMLID_271_">
							<polygon style="fill:#40495F;" points="660.404,532.04 658.45,597.34 668.697,663.375 693.123,664.106 692.045,592.64 
								704.97,533.374 709.309,494.579 670.552,490.008 							"/>
						</g>
					</g>
					<g id="XMLID_269_">
						<polygon style="fill:#7DB5DB;" points="691.064,356.368 732.819,355.371 757.029,400.396 748.424,442.568 746.892,493.036 
							687.329,493.849 667.731,490.667 672.935,436.743 669.952,364.71 						"/>
					</g>
					<g id="XMLID_268_">
						<polygon style="fill:#7DB5DB;" points="734.204,358.476 768.099,410.103 763.005,438.863 710.509,475.228 700.63,466.592 
							735.727,422.226 734.365,394.19 						"/>
					</g>
					<g id="XMLID_267_">
						<polygon style="fill:#7DB5DB;" points="688.976,383.65 667.226,427.129 643.775,431.79 585.346,406.277 595.424,394.845 
							648.71,404.598 669.952,364.71 						"/>
					</g>
					<g id="XMLID_262_">
						<g id="XMLID_266_">
							<path style="fill:#EAC2A7;" d="M693.678,321.383c6.295-18.301,30.455-11.443,35.436,4.853
								c3.249,10.63-4.96,24.424-15.974,27.477c-0.048,0.418-0.085,0.809-0.086,1.141c-0.008,1.706-0.218,3.388-0.471,5.093
								c-0.094,0.636-9.733-1.217-10.808-1.428c-0.376-0.074-0.796-0.176-0.998-0.492c-0.389-0.605,0.243-2.388,0.314-3.06
								c0.083-0.794,0.167-1.588,0.25-2.382c-5.433-2.652-8.861-8.3-9.818-14.05C690.56,332.758,691.787,326.883,693.678,321.383z"
								/>
						</g>
						<g id="XMLID_263_">
							<g id="XMLID_265_">
								<path style="fill:#3B455A;" d="M709.44,304.846c1.295,1.315,1.805,3.15,2.178,4.911c0.223,1.052,0.415,2.14,0.19,3.182
									c-0.898,4.155-5.018,3.938-8.204,5.276c-3.93,1.651-7.319,4.692-9.519,8.193c-3.446,5.483-1.896,12.538-0.498,18.586
									c0.492,2.131,1.483,5.3-0.169,7.201c-1.68,1.932-5.562,1.633-7.573,0.639c-1.838-0.908-3.348-2.587-5.366-2.926
									c-2.136-0.358-5.023,0.582-6.017-1.379c-0.276-0.545-0.302-1.212-0.651-1.711c-1.18-1.688-4.116,0.289-5.779-0.901
									c-1.023-0.732-1.016-2.292-0.67-3.526s0.929-2.485,0.688-3.74c-0.207-1.079-0.985-1.932-1.466-2.913
									c-0.95-1.939-0.622-4.464,0.793-6.101c2.63-3.044,7.721-2.466,10.539-5.33c1.468-1.492,2.037-3.643,2.585-5.679
									c0.547-2.036,1.204-4.183,2.774-5.563c1.939-1.704,4.739-1.415,6.651-3.436c1.124-1.188,1.873-2.734,3.135-3.768
									c1.663-1.362,4.913-2.41,6.981-3.105C703.32,301.655,706.989,302.357,709.44,304.846z"/>
							</g>
							<g id="XMLID_264_">
								<path style="fill:#3B455A;" d="M724.723,334.051c0.113,6.024-2.88,12.535-0.105,17.838c2.8,5.351,9.781,6.315,15.73,6.594
									c0.979,0.046,13.535,1.13,13.588,0.892c0.94-4.195,1.912-8.474,4.105-12.159c2.193-3.684,5.859-6.737,10.058-6.999
									c-1.212-0.21-1.823-1.693-1.682-2.944c0.14-1.251,0.788-2.378,1.162-3.58c0.92-2.952,0.025-6.397-2.201-8.472
									c-4.442-4.14-12.495-2.42-16.302-7.175c-2.361-2.948-2.08-7.225-3.317-10.824c-2.392-6.96-10.012-8.416-15.708-11.559
									c-6.012-3.318-11.673-5.136-18.613-3.98c-8.602,1.434-14.996,10.191-11.679,18.432c4.255,10.57,21.267,9.658,24.452,20.391
									C724.554,331.66,724.7,332.846,724.723,334.051z"/>
							</g>
						</g>
					</g>
				</g>
				<g id="XMLID_260_">
					<polygon style="fill:#F7F7F7;" points="720.467,356.129 707.514,374.437 701.424,373.938 691.275,355.371 					"/>
				</g>
			</g>
			<g>
				<g>
					<path style="fill:#FFFFFF;" d="M654.775,494.285c-1.133,0-2.182-0.435-2.953-1.225l-29.166-29.897l-18.029,23.079
						c-0.733,0.939-1.778,1.456-2.942,1.456c-1.798,0-3.567-1.249-4.206-2.97l-43.445-116.96c-0.572-1.54-0.224-3.123,0.905-4.19
						c0.712-0.898,1.744-1.409,2.868-1.409c0.51,0,1.029,0.104,1.543,0.31l115.845,46.325c1.565,0.626,2.619,1.927,2.821,3.482
						c0.2,1.536-0.481,3.046-1.82,4.04l-23.097,17.142l29.104,29.834c0.753,0.771,1.194,1.84,1.211,2.933
						c0.018,1.161-0.417,2.236-1.228,3.026l-24.404,23.81C656.992,493.842,655.896,494.285,654.775,494.285L654.775,494.285z
						 M622.235,452.568c1.168,0,2.317,0.462,3.072,1.236l29.579,30.321l18.369-17.921l-29.521-30.261
						c-0.868-0.89-1.294-2.035-1.2-3.223c0.101-1.266,0.787-2.458,1.883-3.271l20.932-15.535l-100.058-40.012l37.525,101.024
						l16.364-20.948C619.881,453.082,620.994,452.568,622.235,452.568z"/>
					<g>
						<path style="fill:#FFFFFF;" d="M683.526,462.011l-10.655-10.922L655.9,433.692l21.398-15.881
							c1.885-1.399,2.839-3.553,2.552-5.762c-0.289-2.228-1.772-4.083-3.968-4.961l-39.38-15.748l-34.571-13.825l-27.655-11.059
							l-7.119-2.847l-7.119-2.847c-0.734-0.293-1.484-0.442-2.23-0.442c-1.653,0-3.17,0.724-4.231,2.003
							c-1.608,1.581-2.098,3.87-1.274,6.088l14.036,37.786l0.732,1.973l1.022,2.75l22.316,60.076l2.67,7.188l2.669,7.187
							c0.898,2.419,3.396,4.175,5.939,4.175c1.72,0,3.324-0.79,4.399-2.167l9.666-12.373l7.06-9.038l6.374,6.533l17.324,17.759
							l1.995,2.045l1.995,2.045c1.122,1.15,2.641,1.784,4.276,1.784c1.598,0,3.165-0.634,4.298-1.739l7.047-6.875l17.358-16.935
							c1.161-1.132,1.811-2.728,1.785-4.379C685.237,464.622,684.62,463.133,683.526,462.011z M680.895,467.938
							c-8.135,7.937-16.269,15.873-24.404,23.81c-0.463,0.452-1.092,0.689-1.716,0.689c-0.596,0-1.189-0.216-1.629-0.668
							c-1.33-1.363-2.66-2.727-3.99-4.09c-8.885-9.107-17.769-18.214-26.653-27.321c-6.444,8.249-12.888,16.497-19.331,24.746
							c-0.411,0.527-0.943,0.746-1.485,0.746c-1.037,0-2.114-0.798-2.473-1.765c-1.78-4.792-3.56-9.583-5.34-14.375
							c-7.779-20.942-15.558-41.884-23.336-62.826c-4.923-13.253-9.846-26.506-14.768-39.759c-0.368-0.991-0.061-1.788,0.541-2.291
							c0.34-0.487,0.854-0.815,1.498-0.815c0.265,0,0.552,0.055,0.857,0.177c4.746,1.898,9.492,3.796,14.238,5.694
							c20.742,8.295,41.484,16.589,62.227,24.884c13.127,5.249,26.253,10.498,39.38,15.748c1.949,0.779,2.309,3.041,0.585,4.32
							c-8.265,6.134-16.531,12.269-24.796,18.403c0.693,0.711,1.387,1.421,2.08,2.132c9.5,9.739,19.001,19.478,28.501,29.217
							C681.76,465.495,681.823,467.034,680.895,467.938z"/>
						<path style="fill:#FFFFFF;" d="M645.058,434.652c-1.15-1.178-0.762-2.811,0.461-3.719c7.864-5.836,15.727-11.672,23.59-17.508
							c-3.358-1.343-6.716-2.686-10.074-4.028c-20.742-8.295-41.484-16.589-62.226-24.884c-11.567-4.625-23.134-9.251-34.701-13.876
							c1.185,3.192,2.371,6.384,3.557,9.576c7.779,20.942,15.558,41.884,23.337,62.826c4.412,11.878,8.824,23.755,13.236,35.633
							c6.133-7.852,12.268-15.704,18.401-23.556c0.378-0.483,0.981-0.699,1.597-0.699c0.657,0,1.327,0.247,1.749,0.679
							c1.331,1.364,2.66,2.727,3.991,4.09c8.96,9.185,17.92,18.37,26.88,27.555c7.006-6.834,14.01-13.669,21.016-20.503
							c-0.77-0.789-1.54-1.579-2.311-2.368C664.059,454.13,654.558,444.391,645.058,434.652z M654.919,481.512l-10.874-11.148
							l-13.424-13.76l-1.995-2.045l-1.995-2.045c-1.113-1.14-2.715-1.794-4.395-1.794c-1.814,0-3.458,0.773-4.511,2.12l-7.351,9.41
							l-6.975,8.93l-4.313-11.612l-6.617-17.817l-1.089-2.929l-22.248-59.897l-0.654-1.759l19.026,7.608l7.933,3.172l31.113,12.442
							l31.114,12.442l3.928,1.571l-6.48,4.809l-11.795,8.754c-1.523,1.131-2.48,2.81-2.623,4.608
							c-0.138,1.728,0.472,3.383,1.719,4.661l13.408,13.744l14.822,15.194L654.919,481.512z"/>
					</g>
				</g>
				<polygon style="fill:#3B455A;" points="558.046,366.481 601.491,483.441 622.318,456.779 654.81,490.086 667.013,478.181 
					679.215,466.276 646.723,432.969 673.89,412.806 				"/>
			</g>
			<g id="XMLID_258_">
				<polygon style="fill:#EAC2A7;" points="689.046,471.133 689.272,478.176 676.841,482.701 669.677,477.273 669.672,469.074 
					676.589,468.688 676.806,466.885 679.071,465.428 				"/>
			</g>
		</g>
		<g>
			<g id="XMLID_257_">
				<polygon style="fill:#EAC2A7;" points="322.357,474.423 317.99,479.954 325.301,490.979 334.289,490.869 339.164,484.277 
					333.829,479.857 334.726,478.278 333.77,475.761 				"/>
			</g>
			<g id="XMLID_256_">
				<polygon style="fill:#40495F;" points="315.539,360.079 280.505,381.442 261.108,417.86 266.202,446.621 318.698,482.986 
					328.577,474.349 293.481,429.984 294.843,401.948 				"/>
			</g>
		</g>
	</g>
</g>
</svg>
