<?xml version="1.0" encoding="utf-8"?>
<!-- Generator: Adobe Illustrator 27.5.0, SVG Export Plug-In . SVG Version: 6.00 Build 0)  -->
<svg version="1.1" xmlns="http://www.w3.org/2000/svg" xmlns:xlink="http://www.w3.org/1999/xlink" x="0px" y="0px"
	 viewBox="0 0 3710 3710" style="enable-background:new 0 0 3710 3710;" xml:space="preserve">
<g id="Background">
	<g>
		<g>
			<rect style="fill:#FFFFFF;" width="3710" height="3710"/>
		</g>
	</g>
</g>
<g id="Illustration">
	<g>
		<linearGradient id="SVGID_1_" gradientUnits="userSpaceOnUse" x1="3479.5432" y1="3292.8938" x2="1397.2054" y2="1470.8495">
			<stop  offset="0" style="stop-color:#DAE3FE"/>
			<stop  offset="1" style="stop-color:#E9EFFD"/>
		</linearGradient>
		<path style="fill:url(#SVGID_1_);" d="M3125.654,2346.625c-269.122,633.674-986,988.662-1607.679,892.906
			c-101.16-15.582-378.492-61.997-624.031-280.967C421.265,2537.03,320.179,1702.338,701.475,1114.111
			c277.516-428.126,774.993-670.816,1247.694-658.677c101.82,2.615,492.035,18.73,834.967,301.504
			c50.37,41.534,161.466,140.23,261.59,296.805C3280.835,1421.411,3301.044,1933.652,3125.654,2346.625z"/>
		<g>
			<g>
				<g>
					
						<ellipse transform="matrix(0.7071 -0.7071 0.7071 0.7071 -26.2995 1949.4553)" style="fill:#7D97F4;" cx="2340.051" cy="1006.474" rx="251.457" ry="251.457"/>
					
						<ellipse transform="matrix(0.7071 -0.7071 0.7071 0.7071 -26.2995 1949.4553)" style="fill:#91B3FA;" cx="2340.051" cy="1006.474" rx="243.095" ry="243.095"/>
					<path style="opacity:0.83;fill:#FFFFFF;" d="M2115.959,997.133c-0.046,0-0.092,0-0.137-0.003
						c-1.417-0.075-2.504-1.284-2.431-2.699c0.499-9.551,1.609-19.141,3.3-28.509c0.251-1.395,1.577-2.323,2.983-2.072
						c1.396,0.253,2.322,1.588,2.07,2.985c-1.65,9.154-2.735,18.53-3.224,27.862C2118.45,996.07,2117.316,997.133,2115.959,997.133z
						"/>
					<path style="opacity:0.83;fill:#FFFFFF;" d="M2139.595,908.059c-0.389,0-0.784-0.088-1.155-0.276
						c-1.267-0.64-1.774-2.185-1.135-3.449c38.866-77,116.553-124.834,202.746-124.834c13.746,0,27.521,1.239,40.943,3.687
						c1.396,0.253,2.321,1.59,2.067,2.987c-0.253,1.397-1.586,2.33-2.987,2.064c-13.119-2.39-26.584-3.601-40.022-3.601
						c-84.242,0-160.173,46.753-198.161,122.01C2141.438,907.542,2140.534,908.059,2139.595,908.059z"/>
					
						<ellipse transform="matrix(0.7071 -0.7071 0.7071 0.7071 -28.4933 1954.7517)" style="opacity:0.75;fill:#FFFFFF;" cx="2345.347" cy="1011.77" rx="205.75" ry="205.75"/>
				</g>
			</g>
			<g>
				<path style="fill:#91B3FA;" d="M2405.658,930.421c0,36.042-29.218,74.952-65.26,74.952s-65.26-38.91-65.26-74.952
					c0-36.042,29.218-61.612,65.26-61.612S2405.658,894.378,2405.658,930.421z"/>
				<path style="fill:#91B3FA;" d="M2259.409,1144.139h159.311c16.77,0,31.618-10.839,36.728-26.811l8.573-26.794
					c6.277-19.618-3.928-40.858-23.273-47.932c-64.834-23.705-131.874-20.664-200.55,2.188c-19.239,6.402-29.915,26.98-24.607,46.55
					l6.601,24.333C2226.75,1132.474,2242.001,1144.139,2259.409,1144.139z"/>
			</g>
		</g>
		<g>
			
				<linearGradient id="SVGID_00000117645981980564333110000005260038510167598727_" gradientUnits="userSpaceOnUse" x1="1353.3403" y1="3396.2039" x2="1698.4514" y2="2995.6292">
				<stop  offset="0" style="stop-color:#E1473D"/>
				<stop  offset="1" style="stop-color:#E9605A"/>
			</linearGradient>
			
				<circle style="fill:url(#SVGID_00000117645981980564333110000005260038510167598727_);" cx="1705.422" cy="2987.538" r="257.293"/>
			
				<linearGradient id="SVGID_00000020372945583686868580000000198290365598756511_" gradientUnits="userSpaceOnUse" x1="1893.4613" y1="2703.4646" x2="872.9595" y2="4245.1519">
				<stop  offset="0" style="stop-color:#FE7062"/>
				<stop  offset="1" style="stop-color:#FF928E"/>
			</linearGradient>
			
				<circle style="fill:url(#SVGID_00000020372945583686868580000000198290365598756511_);" cx="1705.422" cy="2987.538" r="248.738"/>
			<path style="fill:#FFFFFF;" d="M1500.313,2886.948c-0.414,0-0.835-0.094-1.231-0.294c-1.35-0.682-1.891-2.328-1.209-3.675
				c39.786-78.824,119.314-127.789,207.549-127.789c14.083,0,28.185,1.269,41.914,3.771c1.487,0.27,2.473,1.695,2.202,3.184
				c-0.27,1.486-1.702,2.491-3.183,2.199c-13.406-2.443-27.179-3.68-40.933-3.68c-86.156,0-163.812,47.814-202.663,124.78
				C1502.278,2886.397,1501.314,2886.948,1500.313,2886.948z"/>
			
				<ellipse transform="matrix(0.7071 -0.7071 0.7071 0.7071 -1615.2467 2086.365)" style="opacity:0.78;fill:#FFFFFF;" cx="1710.842" cy="2992.958" rx="210.526" ry="210.526"/>
			<g>
				
					<linearGradient id="SVGID_00000173156736097167107620000002114561892869559183_" gradientUnits="userSpaceOnUse" x1="1863.0189" y1="2747.6379" x2="1319.6217" y2="3659.9119">
					<stop  offset="0" style="stop-color:#FE7062"/>
					<stop  offset="1" style="stop-color:#FF928E"/>
				</linearGradient>
				<path style="fill:url(#SVGID_00000173156736097167107620000002114561892869559183_);" d="M1690.182,3149.465v-22.903
					c-23.876-0.956-47.493-6.592-64.267-13.935c-5.99-2.621-9.043-9.344-7.323-15.652l5.82-21.334
					c2.134-7.826,10.646-11.875,18.128-8.739c16.639,6.975,37.183,12.495,59.337,12.495c22.997,0,40.148-7.798,40.148-23.779
					c0-14.422-13.252-22.996-45.215-31.571c-45.605-12.474-78.349-32.354-78.349-72.502c0-36.252,26.507-63.926,72.502-71.331
					v-22.907c0-7.37,5.975-13.345,13.345-13.345h13.457c7.37,0,13.346,5.975,13.346,13.345v20.566
					c22.094,0.885,38.177,4.663,50.94,9.148c6.539,2.297,10.113,9.341,8.299,16.031l-5.352,19.73
					c-2.063,7.609-10.195,11.776-17.568,8.988c-11.751-4.443-28.365-9.07-49.961-9.07c-27.286,0-35.08,11.302-35.08,21.438
					c0,12.473,16.37,21.048,51.841,31.964c50.674,15.201,71.722,36.249,71.722,74.058c0,34.692-25.726,65.876-75.619,73.672v25.632
					c0,7.371-5.975,13.346-13.345,13.346h-13.459C1696.157,3162.811,1690.182,3156.836,1690.182,3149.465z"/>
			</g>
		</g>
		<g>
			
				<linearGradient id="SVGID_00000056399725500886483700000005314243785770896572_" gradientUnits="userSpaceOnUse" x1="2368.2715" y1="2996.0286" x2="2702.7046" y2="2607.8481" gradientTransform="matrix(1 -0.0019 0.0019 1 1.4571 -1.4243)">
				<stop  offset="0" style="stop-color:#E1473D"/>
				<stop  offset="1" style="stop-color:#E9605A"/>
			</linearGradient>
			
				<circle style="fill:url(#SVGID_00000056399725500886483700000005314243785770896572_);" cx="2715.857" cy="2593.435" r="249.333"/>
			
				<linearGradient id="SVGID_00000109015677063292199060000006517496136687187844_" gradientUnits="userSpaceOnUse" x1="2649.8665" y1="2854.8904" x2="2827.4668" y2="2151.2332">
				<stop  offset="0" style="stop-color:#FE7062"/>
				<stop  offset="1" style="stop-color:#FF928E"/>
			</linearGradient>
			
				<circle style="fill:url(#SVGID_00000109015677063292199060000006517496136687187844_);" cx="2715.856" cy="2593.435" r="241.042"/>
			<path style="opacity:0.78;fill:#FFFFFF;" d="M2516.905,2496.344c-0.402,0-0.81-0.089-1.194-0.282
				c-1.309-0.658-1.837-2.253-1.179-3.559c38.406-76.46,115.382-124.06,200.886-124.227c13.648-0.027,27.315,1.177,40.624,3.576
				c1.442,0.259,2.4,1.637,2.141,3.081c-0.259,1.441-1.644,2.417-3.081,2.138c-12.997-2.342-26.344-3.515-39.673-3.489
				c-83.491,0.162-158.654,46.643-196.157,121.301C2518.808,2495.806,2517.875,2496.342,2516.905,2496.344z"/>
			
				<ellipse transform="matrix(0.7071 -0.7071 0.7071 0.7071 -1040.5448 2685.2563)" style="opacity:0.78;fill:#FFFFFF;" cx="2721.119" cy="2598.677" rx="204.012" ry="204.012"/>
			<g>
				
					<linearGradient id="SVGID_00000131334107140183601390000015727596373588859550_" gradientUnits="userSpaceOnUse" x1="2587.0444" y1="2809.0576" x2="2971.4712" y2="2233.5417">
					<stop  offset="0" style="stop-color:#FE7062"/>
					<stop  offset="1" style="stop-color:#FF928E"/>
				</linearGradient>
				<path style="fill:url(#SVGID_00000131334107140183601390000015727596373588859550_);" d="M2701.394,2750.38l-0.043-22.194
					c-23.139-0.882-46.036-6.299-62.305-13.382c-5.809-2.529-8.781-9.038-7.125-15.154l5.599-20.685
					c2.054-7.588,10.294-11.527,17.551-8.503c16.137,6.728,36.057,12.038,57.525,11.996c22.286-0.043,38.891-7.632,38.861-23.118
					c-0.027-13.976-12.885-22.26-43.875-30.509c-44.218-12.002-75.986-31.206-76.061-70.112
					c-0.068-35.13,25.566-61.998,70.124-69.26l-0.043-22.198c-0.014-7.142,5.765-12.944,12.907-12.958l13.041-0.025
					c7.142-0.014,12.944,5.765,12.958,12.907l0.039,19.93c21.412,0.815,37.004,4.446,49.381,8.769
					c6.341,2.213,9.817,9.033,8.072,15.52l-5.149,19.13c-1.985,7.377-9.857,11.431-17.008,8.743
					c-11.396-4.284-27.504-8.736-48.433-8.695c-26.441,0.051-33.973,11.018-33.954,20.84c0.023,12.087,15.903,20.366,50.297,30.877
					c49.135,14.635,69.571,34.992,69.643,71.632c0.065,33.619-24.806,63.886-73.14,71.535l0.048,24.839
					c0.014,7.143-5.765,12.945-12.907,12.958l-13.042,0.025C2707.208,2763.302,2701.407,2757.523,2701.394,2750.38z"/>
			</g>
		</g>
		<g>
			
				<linearGradient id="SVGID_00000146501885459461106040000016707638316279528336_" gradientUnits="userSpaceOnUse" x1="2226.2864" y1="2738.1006" x2="2660.0771" y2="2234.594" gradientTransform="matrix(0.9979 -0.0642 0.0642 0.9979 103.0641 -72.3153)">
				<stop  offset="0" style="stop-color:#E1473D"/>
				<stop  offset="1" style="stop-color:#E9605A"/>
			</linearGradient>
			
				<circle style="fill:url(#SVGID_00000146501885459461106040000016707638316279528336_);" cx="2909.107" cy="1976.097" r="323.395"/>
			
				<linearGradient id="SVGID_00000137840114153485307990000016212777157732623489_" gradientUnits="userSpaceOnUse" x1="2643.5757" y1="2411.1604" x2="3228.0823" y2="1453.4685">
				<stop  offset="0" style="stop-color:#FE7062"/>
				<stop  offset="1" style="stop-color:#FF928E"/>
			</linearGradient>
			
				<circle style="fill:url(#SVGID_00000137840114153485307990000016212777157732623489_);" cx="2909.106" cy="1976.097" r="312.642"/>
			<path style="opacity:0.78;fill:#FFFFFF;" d="M2643.713,1866.486c-0.52,0.033-1.055-0.05-1.568-0.269
				c-1.748-0.746-2.56-2.768-1.814-4.512c43.54-102.083,139.34-169.923,250.014-177.047c17.665-1.137,35.456-0.684,52.878,1.346
				c1.887,0.218,3.24,1.925,3.02,3.815c-0.219,1.886-1.933,3.262-3.816,3.016c-17.013-1.982-34.387-2.422-51.64-1.311
				c-108.068,6.957-201.612,73.2-244.129,172.877C2646.133,1865.637,2644.969,1866.406,2643.713,1866.486z"/>
			
				<ellipse transform="matrix(0.7071 -0.7071 0.7071 0.7071 -547.6327 2642.814)" style="opacity:0.78;fill:#FFFFFF;" cx="2916.342" cy="1982.458" rx="264.613" ry="264.613"/>
			<g>
				
					<linearGradient id="SVGID_00000116200241088860457040000014886643232971958422_" gradientUnits="userSpaceOnUse" x1="2832.1084" y1="1831.1697" x2="3081.6553" y2="1170.2086" gradientTransform="matrix(0.9979 -0.0642 0.0642 0.9979 103.0641 -72.3153)">
					<stop  offset="0" style="stop-color:#FE7062"/>
					<stop  offset="1" style="stop-color:#FF928E"/>
				</linearGradient>
				<path style="fill:url(#SVGID_00000116200241088860457040000014886643232971958422_);" d="M2903.066,2180.436l-1.849-28.728
					c-30.026,0.729-60.104-4.434-81.737-12.289c-7.724-2.805-12.097-10.99-10.449-19.042l5.577-27.23
					c2.045-9.989,12.395-15.754,22.032-12.425c21.434,7.406,47.649,12.67,75.437,10.881c28.846-1.857,49.729-13.022,48.438-33.068
					c-1.165-18.09-18.479-27.775-59.263-35.948c-58.21-11.965-100.887-34.257-104.128-84.616
					c-2.927-45.471,28.087-82.324,85.181-95.325l-1.85-28.733c-0.595-9.244,6.417-17.222,15.662-17.817l16.88-1.086
					c9.244-0.595,17.222,6.417,17.817,15.662l1.66,25.796c27.784-0.674,48.262,2.766,64.633,7.362
					c8.387,2.353,13.439,10.9,11.704,19.438l-5.119,25.18c-1.973,9.711-11.836,15.595-21.31,12.692
					c-15.099-4.625-36.311-9.087-63.4-7.343c-34.225,2.203-43.089,17.008-42.271,29.722c1.007,15.645,22.233,25.079,67.605,35.907
					c64.789,14.975,92.889,39.677,95.942,87.102c2.801,43.515-26.949,84.707-88.901,98.514l2.07,32.151
					c0.595,9.246-6.417,17.223-15.662,17.818l-16.882,1.087C2911.638,2196.694,2903.661,2189.682,2903.066,2180.436z"/>
			</g>
		</g>
		<g>
			
				<linearGradient id="SVGID_00000160192607046555625060000015124277123096262847_" gradientUnits="userSpaceOnUse" x1="1514.4453" y1="3014.7117" x2="1733.1371" y2="2760.8733">
				<stop  offset="0" style="stop-color:#FE7062"/>
				<stop  offset="1" style="stop-color:#FF928E"/>
			</linearGradient>
			
				<circle style="fill:url(#SVGID_00000160192607046555625060000015124277123096262847_);" cx="1737.554" cy="2755.746" r="163.043"/>
			
				<linearGradient id="SVGID_00000106114263308824420570000006173079113588671637_" gradientUnits="userSpaceOnUse" x1="1856.7119" y1="2575.7329" x2="1210.0352" y2="3552.6772">
				<stop  offset="0" style="stop-color:#FE7062"/>
				<stop  offset="1" style="stop-color:#FF928E"/>
			</linearGradient>
			
				<circle style="fill:url(#SVGID_00000106114263308824420570000006173079113588671637_);" cx="1737.554" cy="2755.746" r="157.621"/>
			<path style="fill:#FFFFFF;" d="M1607.58,2692.003c-0.263,0-0.529-0.059-0.78-0.186c-0.855-0.432-1.198-1.475-0.766-2.329
				c25.212-49.949,75.608-80.978,131.521-80.978c8.924,0,17.86,0.804,26.56,2.39c0.942,0.171,1.568,1.074,1.396,2.017
				c-0.171,0.942-1.078,1.579-2.017,1.394c-8.496-1.548-17.223-2.333-25.939-2.333c-54.596,0-103.805,30.299-128.424,79.072
				C1608.825,2691.654,1608.214,2692.003,1607.58,2692.003z"/>
			
				<ellipse transform="matrix(0.7071 -0.7071 0.7071 0.7071 -1441.1115 2039.2101)" style="opacity:0.78;fill:#FFFFFF;" cx="1740.989" cy="2759.18" rx="133.407" ry="133.407"/>
			<g>
				
					<linearGradient id="SVGID_00000003783424895523835330000010257544643765726392_" gradientUnits="userSpaceOnUse" x1="1837.4211" y1="2603.7249" x2="1493.0781" y2="3181.8198">
					<stop  offset="0" style="stop-color:#FE7062"/>
					<stop  offset="1" style="stop-color:#FF928E"/>
				</linearGradient>
				<path style="fill:url(#SVGID_00000003783424895523835330000010257544643765726392_);" d="M1727.897,2858.357v-14.514
					c-15.13-0.606-30.096-4.177-40.725-8.83c-3.795-1.661-5.73-5.921-4.64-9.918l3.687-13.519c1.353-4.959,6.746-7.525,11.487-5.538
					c10.544,4.42,23.563,7.918,37.601,7.918c14.573,0,25.441-4.941,25.441-15.068c0-9.139-8.398-14.573-28.652-20.006
					c-28.899-7.905-49.648-20.502-49.648-45.944c0-22.973,16.797-40.51,45.943-45.202v-14.516c0-4.67,3.786-8.457,8.457-8.457h8.528
					c4.67,0,8.457,3.787,8.457,8.457v13.032c14.001,0.56,24.192,2.954,32.279,5.797c4.144,1.456,6.408,5.919,5.259,10.159
					l-3.391,12.503c-1.307,4.822-6.46,7.463-11.133,5.696c-7.447-2.816-17.974-5.747-31.66-5.747
					c-17.291,0-22.23,7.162-22.23,13.584c0,7.904,10.374,13.338,32.851,20.255c32.111,9.632,45.449,22.97,45.449,46.93
					c0,21.984-16.302,41.745-47.919,46.685v16.243c0,4.671-3.786,8.457-8.457,8.457h-8.529
					C1731.683,2866.814,1727.897,2863.028,1727.897,2858.357z"/>
			</g>
		</g>
		<g>
			
				<linearGradient id="SVGID_00000026141128179335723270000001986764703457104047_" gradientUnits="userSpaceOnUse" x1="2332.3723" y1="3071.9324" x2="2612.9712" y2="2746.2378" gradientTransform="matrix(0.9979 0.065 -0.065 0.9979 -94.0908 83.4206)">
				<stop  offset="0" style="stop-color:#E1473D"/>
				<stop  offset="1" style="stop-color:#E9605A"/>
			</linearGradient>
			<circle style="fill:url(#SVGID_00000026141128179335723270000001986764703457104047_);" cx="2340.971" cy="2987.538" r="209.2"/>
			
				<linearGradient id="SVGID_00000127754568249625664830000015008854590039362710_" gradientUnits="userSpaceOnUse" x1="2242.99" y1="3202.3435" x2="2476.7935" y2="2689.7732">
				<stop  offset="0" style="stop-color:#FE7062"/>
				<stop  offset="1" style="stop-color:#FF928E"/>
			</linearGradient>
			
				<circle style="fill:url(#SVGID_00000127754568249625664830000015008854590039362710_);" cx="2340.971" cy="2987.538" r="202.243"/>
			<path style="opacity:0.78;fill:#FFFFFF;" d="M2179.866,2895.09c-0.336-0.022-0.673-0.12-0.983-0.303
				c-1.059-0.625-1.411-1.989-0.788-3.046c36.445-61.854,103.556-97.383,175.147-92.723c11.426,0.744,22.801,2.519,33.808,5.274
				c1.192,0.297,1.917,1.506,1.619,2.699c-0.298,1.191-1.512,1.931-2.699,1.617c-10.749-2.69-21.858-4.422-33.017-5.148
				c-69.905-4.55-135.436,30.143-171.023,90.539C2181.489,2894.747,2180.678,2895.143,2179.866,2895.09z"/>
			
				<ellipse transform="matrix(0.7071 -0.7071 0.7071 0.7071 -1428.9617 2534.625)" style="opacity:0.78;fill:#FFFFFF;" cx="2345.082" cy="2992.222" rx="171.174" ry="171.174"/>
			<g>
				
					<linearGradient id="SVGID_00000065046664798595822390000015936227810400488348_" gradientUnits="userSpaceOnUse" x1="2373.5461" y1="3324.7239" x2="2211.6877" y2="3695.6499" gradientTransform="matrix(0.9979 0.065 -0.065 0.9979 -94.0908 83.4206)">
					<stop  offset="0" style="stop-color:#FE7062"/>
					<stop  offset="1" style="stop-color:#FF928E"/>
				</linearGradient>
				<path style="fill:url(#SVGID_00000065046664798595822390000015936227810400488348_);" d="M2320.054,3118.115l1.21-18.583
					c-19.322-2.037-38.187-7.857-51.408-14.7c-4.721-2.443-6.844-8.059-5.115-13.086l5.848-17.003
					c2.145-6.237,9.265-9.072,15.17-6.133c13.132,6.538,29.51,12.102,47.484,13.271c18.659,1.215,32.986-4.207,33.83-17.173
					c0.762-11.702-9.538-19.358-35.019-28.003c-36.343-12.53-61.86-30.389-59.74-62.964c1.915-29.414,24.883-50.468,62.592-54.047
					l1.21-18.586c0.389-5.98,5.553-10.513,11.532-10.124l10.919,0.711c5.98,0.389,10.513,5.553,10.123,11.533l-1.086,16.687
					c17.879,1.884,30.729,5.799,40.847,10.112c5.184,2.209,7.712,8.114,5.887,13.446l-5.384,15.726
					c-2.075,6.065-8.893,9.017-14.729,6.365c-9.3-4.226-22.535-8.857-40.058-9.998c-22.139-1.441-29.06,7.317-29.595,15.541
					c-0.659,10.12,12.171,17.942,40.374,28.672c40.312,15.009,56.278,33.199,54.281,63.876
					c-1.832,28.148-24.352,52.091-65.245,55.782l-1.354,20.797c-0.389,5.981-5.553,10.513-11.532,10.124l-10.92-0.711
					C2324.198,3129.259,2319.665,3124.095,2320.054,3118.115z"/>
			</g>
		</g>
		<g>
			<g>
				
					<linearGradient id="SVGID_00000060025872579839712950000008109237849163497117_" gradientUnits="userSpaceOnUse" x1="1518.1051" y1="2480.2317" x2="1669.8458" y2="1099.3959">
					<stop  offset="0" style="stop-color:#4F52FF"/>
					<stop  offset="1" style="stop-color:#4042E2"/>
				</linearGradient>
				<path style="fill:url(#SVGID_00000060025872579839712950000008109237849163497117_);" d="M2157.747,2408.724
					c-332.899,0-665.799,0-998.698,0c-195.513-397.702-391.025-803.437-586.537-1205.156c723.924,0,1447.848,0,2171.772,0
					C2548.772,1605.287,2353.26,2011.022,2157.747,2408.724z"/>
				
					<linearGradient id="SVGID_00000000223296342338233770000006038544475176620953_" gradientUnits="userSpaceOnUse" x1="1659.3041" y1="1200.4974" x2="1962.782" y2="355.8165">
					<stop  offset="0" style="stop-color:#4F52FF"/>
					<stop  offset="1" style="stop-color:#4042E2"/>
				</linearGradient>
				<path style="fill:url(#SVGID_00000000223296342338233770000006038544475176620953_);" d="M2814.585,1218.511
					c0,13.934-11.295,25.229-25.229,25.229H529.932c-13.934,0-25.229-11.296-25.229-25.229v-37.92
					c0-13.934,11.296-25.229,25.229-25.229h2259.424c13.934,0,25.229,11.295,25.229,25.229V1218.511z"/>
				
					<linearGradient id="SVGID_00000002377625831389772040000000900340297148886965_" gradientUnits="userSpaceOnUse" x1="1567.8196" y1="1733.9114" x2="1751.0828" y2="3099.2253">
					<stop  offset="0" style="stop-color:#4F52FF"/>
					<stop  offset="1" style="stop-color:#4042E2"/>
				</linearGradient>
				<path style="fill:url(#SVGID_00000002377625831389772040000000900340297148886965_);" d="M2086.037,2878.735
					c-285.093,0-570.185,0-855.278,0c-24.791-148.636-49.581-313.341-74.372-470.011c334.674,0,669.348,0,1004.022,0
					C2135.618,2565.394,2110.828,2730.099,2086.037,2878.735z"/>
			</g>
			
				<linearGradient id="SVGID_00000111888690956215502730000004616798724740383155_" gradientUnits="userSpaceOnUse" x1="1646.5128" y1="2805.1467" x2="1707.1981" y2="3257.2532">
				<stop  offset="0" style="stop-color:#4F52FF"/>
				<stop  offset="1" style="stop-color:#4042E2"/>
			</linearGradient>
			<path style="fill:url(#SVGID_00000111888690956215502730000004616798724740383155_);" d="M2111.578,2882.646
				c0,17.333-10.697,28.226-23.297,28.226h-866.32c-12.6,0-22.285-10.893-22.285-28.226v-19.301
				c0-17.333,9.685-32.816,22.285-32.816h866.32c12.6,0,23.297,15.484,23.297,32.816V2882.646z"/>
			<g>
				<path style="fill:#91B3FA;" d="M1104.229,2207.621c-2.738,0-5.348-1.593-6.513-4.261l-380.74-872.021
					c-1.57-3.596,0.072-7.782,3.666-9.351c3.596-1.568,7.784,0.073,9.351,3.666l380.74,872.021c1.57,3.596-0.072,7.782-3.666,9.351
					C1106.142,2207.43,1105.178,2207.621,1104.229,2207.621z"/>
			</g>
			<g>
				<path style="fill:#91B3FA;" d="M1245.541,2773.723c-3.533,0-6.593-2.633-7.04-6.229l-35.986-289.778
					c-0.483-3.892,2.28-7.439,6.173-7.924c3.891-0.495,7.441,2.281,7.924,6.173l35.986,289.778c0.483,3.892-2.281,7.439-6.173,7.924
					C1246.128,2773.705,1245.832,2773.723,1245.541,2773.723z"/>
			</g>
		</g>
		<g>
			<g style="opacity:0.64;">
				
					<linearGradient id="SVGID_00000029041473436639452180000011903267761100786365_" gradientUnits="userSpaceOnUse" x1="1286.1703" y1="1053.489" x2="1711.1041" y2="2520.5256">
					<stop  offset="0" style="stop-color:#FEBBBA"/>
					<stop  offset="1" style="stop-color:#FF928E"/>
				</linearGradient>
				<path style="fill:url(#SVGID_00000029041473436639452180000011903267761100786365_);" d="M1602.105,2143.615
					c-2.45,0-4.877-1.06-6.543-3.105c-2.875-3.53-5.74-7.195-8.509-10.897c-2.793-3.726-2.032-9.01,1.693-11.801
					c3.731-2.789,9.013-2.034,11.803,1.694c2.635,3.517,5.355,7.001,8.088,10.354c2.941,3.609,2.397,8.919-1.212,11.86
					C1605.859,2142.994,1603.976,2143.615,1602.105,2143.615z"/>
				
					<linearGradient id="SVGID_00000023245081248124546350000003062618089747559072_" gradientUnits="userSpaceOnUse" x1="1468.3232" y1="1000.7293" x2="1893.2574" y2="2467.7671">
					<stop  offset="0" style="stop-color:#FEBBBA"/>
					<stop  offset="1" style="stop-color:#FF928E"/>
				</linearGradient>
				<path style="fill:url(#SVGID_00000023245081248124546350000003062618089747559072_);" d="M1569.286,2094.932
					c-2.974,0-5.859-1.579-7.393-4.37c-4.568-8.307-8.835-16.928-12.692-25.627c-1.884-4.258,0.036-9.237,4.294-11.123
					c4.248-1.885,9.234,0.033,11.124,4.293c3.659,8.261,7.713,16.448,12.046,24.333c2.243,4.08,0.754,9.206-3.326,11.45
					C1572.052,2094.596,1570.659,2094.932,1569.286,2094.932z M1541.439,2027.397c-3.662,0-7.034-2.404-8.098-6.099
					c-2.631-9.13-4.9-18.478-6.741-27.784c-0.906-4.568,2.065-9.003,6.632-9.907c4.568-0.912,9.003,2.063,9.906,6.631
					c1.752,8.84,3.906,17.72,6.405,26.394c1.288,4.474-1.294,9.145-5.766,10.434
					C1542.997,2027.29,1542.21,2027.397,1541.439,2027.397z M1529.179,1955.389c-4.442,0-8.16-3.471-8.411-7.959
					c-0.346-6.165-0.52-12.422-0.52-18.598c0-3.348,0.049-6.688,0.151-10.024c0.142-4.653,3.929-8.233,8.684-8.17
					c4.653,0.142,8.312,4.029,8.17,8.684c-0.095,3.165-0.145,6.334-0.145,9.511c0,5.863,0.165,11.804,0.494,17.656
					c0.26,4.648-3.296,8.628-7.946,8.888C1529.495,1955.384,1529.337,1955.389,1529.179,1955.389z M1533.354,1882.447
					c-0.474,0-0.952-0.04-1.436-0.124c-4.587-0.785-7.67-5.144-6.883-9.733c1.6-9.346,3.629-18.749,6.026-27.949
					c1.172-4.508,5.789-7.2,10.281-6.035c4.505,1.174,7.209,5.778,6.033,10.283c-2.276,8.74-4.202,17.672-5.723,26.549
					C1540.948,1879.545,1537.385,1882.447,1533.354,1882.447z M1553.637,1812.281c-1.077,0-2.17-0.207-3.227-0.645
					c-4.301-1.785-6.339-6.718-4.558-11.017c3.639-8.761,7.696-17.481,12.066-25.915c2.141-4.135,7.229-5.747,11.365-3.608
					c4.133,2.142,5.747,7.228,3.606,11.363c-4.153,8.014-8.009,16.298-11.46,24.621
					C1560.082,1810.324,1556.943,1812.281,1553.637,1812.281z M1588.949,1748.352c-1.686,0-3.385-0.502-4.864-1.551
					c-3.8-2.691-4.699-7.951-2.009-11.751c5.48-7.741,11.365-15.344,17.493-22.602c3.003-3.558,8.325-4.008,11.878-1.003
					c3.56,3.003,4.008,8.322,1.004,11.88c-5.819,6.894-11.411,14.118-16.617,21.47
					C1594.192,1747.114,1591.59,1748.352,1588.949,1748.352z M1637.549,1693.856c-2.315,0-4.62-0.947-6.283-2.807
					c-3.105-3.468-2.812-8.797,0.655-11.903c7.08-6.339,14.516-12.441,22.1-18.135c3.728-2.794,9.01-2.043,11.803,1.679
					c2.796,3.723,2.045,9.007-1.68,11.802c-7.199,5.406-14.256,11.197-20.974,17.213
					C1641.56,1693.146,1639.551,1693.856,1637.549,1693.856z M1697.092,1651.594c-2.97,0-5.849-1.573-7.387-4.357
					c-2.249-4.075-0.77-9.204,3.306-11.455c8.289-4.577,16.897-8.863,25.591-12.738c4.242-1.885,9.24,0.013,11.131,4.27
					c1.897,4.251-0.013,9.236-4.268,11.132c-8.256,3.678-16.433,7.749-24.307,12.096
					C1699.868,1651.254,1698.472,1651.594,1697.092,1651.594z M1764.548,1623.627c-3.655,0-7.024-2.396-8.094-6.084
					c-1.297-4.47,1.278-9.148,5.75-10.444c9.132-2.649,18.478-4.936,27.774-6.795c4.531-0.916,9.007,2.045,9.919,6.611
					c0.915,4.566-2.045,9.008-6.613,9.921c-8.832,1.768-17.707,3.94-26.385,6.456
					C1766.116,1623.518,1765.326,1623.627,1764.548,1623.627z M1836.533,1611.226c-4.433,0-8.151-3.459-8.411-7.943
					c-0.27-4.648,3.28-8.635,7.93-8.903c6.382-0.37,12.837-0.558,19.189-0.558c0.026,0,0.056,0,0.086,0
					c3.109,0,6.218,0.044,9.32,0.132c4.657,0.132,8.322,4.011,8.19,8.666c-0.132,4.653-4.008,8.241-8.664,8.188
					c-2.944-0.084-5.895-0.125-8.849-0.125c-0.026,0-0.053,0-0.082,0c-6.03,0-12.155,0.178-18.214,0.529
					C1836.862,1611.221,1836.698,1611.226,1836.533,1611.226z"/>
				
					<linearGradient id="SVGID_00000011747044871990494100000005128018179059110274_" gradientUnits="userSpaceOnUse" x1="1719.2627" y1="928.0421" x2="2144.1958" y2="2395.0764">
					<stop  offset="0" style="stop-color:#FEBBBA"/>
					<stop  offset="1" style="stop-color:#FF928E"/>
				</linearGradient>
				<path style="fill:url(#SVGID_00000011747044871990494100000005128018179059110274_);" d="M1922.872,1617.79
					c-0.583,0-1.169-0.059-1.758-0.184c-4.311-0.916-8.651-1.744-12.899-2.463c-4.591-0.777-7.68-5.129-6.902-9.72
					c0.781-4.591,5.144-7.68,9.721-6.904c4.472,0.757,9.043,1.63,13.578,2.592c4.554,0.967,7.465,5.442,6.497,9.998
					C1930.268,1615.071,1926.768,1617.79,1922.872,1617.79z"/>
			</g>
			<g style="opacity:0.64;">
				
					<linearGradient id="SVGID_00000148623470467479314050000003983865618777647529_" gradientUnits="userSpaceOnUse" x1="1877.2523" y1="882.2802" x2="2302.1863" y2="2349.3171">
					<stop  offset="0" style="stop-color:#FEBBBA"/>
					<stop  offset="1" style="stop-color:#FF928E"/>
				</linearGradient>
				<path style="fill:url(#SVGID_00000148623470467479314050000003983865618777647529_);" d="M2132.374,1764.401
					c-2.812,0-5.562-1.409-7.162-3.973c-2.338-3.752-4.749-7.452-7.173-10.999c-2.625-3.845-1.636-9.091,2.207-11.717
					c3.846-2.621,9.086-1.638,11.717,2.206c2.555,3.741,5.098,7.642,7.561,11.592c2.46,3.952,1.255,9.151-2.697,11.615
					C2135.44,1763.988,2133.899,1764.401,2132.374,1764.401z"/>
				
					<linearGradient id="SVGID_00000066500340520896197110000003626839596645313174_" gradientUnits="userSpaceOnUse" x1="1678.8658" y1="939.742" x2="2103.7998" y2="2406.7788">
					<stop  offset="0" style="stop-color:#FEBBBA"/>
					<stop  offset="1" style="stop-color:#FF928E"/>
				</linearGradient>
				<path style="fill:url(#SVGID_00000066500340520896197110000003626839596645313174_);" d="M1855.284,2263.903
					c-8.5,0-17.101-0.331-25.578-0.983c-4.643-0.357-8.117-4.409-7.759-9.053c0.356-4.64,4.492-8.094,9.049-7.759
					c8.052,0.619,16.215,0.934,24.27,0.934l2.427-0.011c0.023,0,0.046,0,0.066,0c4.627,0,8.394,3.731,8.43,8.363
					c0.036,4.656-3.708,8.46-8.365,8.498L1855.284,2263.903z M1902.168,2260.489c-4.116,0-7.719-3.02-8.332-7.214
					c-0.672-4.607,2.516-8.888,7.123-9.56c8.76-1.279,17.592-2.954,26.25-4.974c4.558-1.059,9.066,1.762,10.126,6.293
					c1.057,4.535-1.759,9.068-6.293,10.126c-9.119,2.127-18.419,3.891-27.646,5.238
					C1902.985,2260.459,1902.573,2260.489,1902.168,2260.489z M1971.726,2242.354c-3.395,0-6.596-2.068-7.877-5.43
					c-1.66-4.352,0.524-9.222,4.877-10.88c8.299-3.162,16.558-6.707,24.547-10.538c4.205-2.015,9.237-0.242,11.246,3.955
					c2.015,4.197,0.244,9.232-3.955,11.246c-8.407,4.034-17.101,7.765-25.838,11.095
					C1973.738,2242.176,1972.723,2242.354,1971.726,2242.354z M2035.668,2209.569c-2.733,0-5.417-1.329-7.037-3.782
					c-2.569-3.883-1.502-9.114,2.381-11.682c7.39-4.887,14.671-10.158,21.633-15.662c3.655-2.89,8.957-2.269,11.842,1.385
					c2.888,3.652,2.269,8.954-1.383,11.84c-7.337,5.801-15.004,11.352-22.792,16.502
					C2038.879,2209.115,2037.265,2209.569,2035.668,2209.569z M2090.822,2163.54c-2.101,0-4.202-0.779-5.835-2.346
					c-3.359-3.222-3.471-8.559-0.25-11.919c6.128-6.39,12.073-13.131,17.661-20.037c2.928-3.619,8.236-4.181,11.859-1.25
					c3.619,2.929,4.176,8.238,1.248,11.857c-5.885,7.273-12.145,14.371-18.596,21.101
					C2095.251,2162.67,2093.038,2163.54,2090.822,2163.54z M2134.538,2106.526c-1.488,0-2.997-0.394-4.36-1.222
					c-3.985-2.411-5.256-7.596-2.845-11.577c4.591-7.581,8.921-15.458,12.87-23.412c2.068-4.171,7.116-5.878,11.299-3.803
					c4.169,2.07,5.875,7.128,3.804,11.299c-4.156,8.376-8.714,16.67-13.548,24.651
					C2140.169,2105.078,2137.386,2106.526,2134.538,2106.526z M2164.808,2041.348c-0.892,0-1.801-0.142-2.694-0.443
					c-4.409-1.487-6.784-6.27-5.295-10.681c2.839-8.421,5.351-17.052,7.465-25.655c1.11-4.521,5.677-7.289,10.199-6.175
					c4.521,1.111,7.288,5.679,6.175,10.199c-2.229,9.061-4.874,18.15-7.861,27.015
					C2171.612,2039.129,2168.329,2041.348,2164.808,2041.348z M2180.144,1971.125c-0.293,0-0.59-0.015-0.889-0.046
					c-4.63-0.486-7.992-4.633-7.505-9.265c0.929-8.835,1.485-17.806,1.663-26.661c0.092-4.655,4.064-8.327,8.592-8.262
					c4.656,0.092,8.355,3.94,8.266,8.595c-0.184,9.331-0.774,18.782-1.752,28.09
					C2188.064,1967.906,2184.406,1971.125,2180.144,1971.125z M2179.647,1899.241c-4.212,0-7.854-3.151-8.361-7.438
					c-1.047-8.816-2.48-17.691-4.258-26.38c-0.935-4.561,2.006-9.017,6.567-9.95c4.554-0.934,9.017,2.002,9.952,6.568
					c1.874,9.148,3.382,18.494,4.482,27.776c0.55,4.623-2.753,8.816-7.377,9.364
					C2180.312,1899.223,2179.976,1899.241,2179.647,1899.241z M2163.412,1829.228c-3.481,0-6.738-2.172-7.956-5.643
					c-2.944-8.399-6.267-16.755-9.876-24.837c-1.9-4.251,0.007-9.237,4.258-11.136c4.251-1.895,9.237,0.008,11.134,4.26
					c3.8,8.505,7.298,17.297,10.396,26.134c1.541,4.393-0.774,9.204-5.167,10.745
					C2165.279,1829.075,2164.337,1829.228,2163.412,1829.228z"/>
				
					<linearGradient id="SVGID_00000034802804499603662790000014916809052251213696_" gradientUnits="userSpaceOnUse" x1="1422.5571" y1="1013.9859" x2="1847.4901" y2="2481.0195">
					<stop  offset="0" style="stop-color:#FEBBBA"/>
					<stop  offset="1" style="stop-color:#FF928E"/>
				</linearGradient>
				<path style="fill:url(#SVGID_00000034802804499603662790000014916809052251213696_);" d="M1786.105,2256.45
					c-0.593,0-1.199-0.063-1.805-0.196c-4.535-0.99-9.059-2.073-13.443-3.221c-4.505-1.179-7.202-5.786-6.023-10.291
					c1.182-4.503,5.792-7.202,10.291-6.02c4.163,1.088,8.457,2.117,12.771,3.059c4.548,0.991,7.433,5.483,6.438,10.032
					C1793.475,2253.758,1789.984,2256.45,1786.105,2256.45z"/>
			</g>
			<g>
				
					<linearGradient id="SVGID_00000149363288602447548210000009115368826316838838_" gradientUnits="userSpaceOnUse" x1="1577.2292" y1="969.1812" x2="2002.1635" y2="2436.2192">
					<stop  offset="0" style="stop-color:#FEBBBA"/>
					<stop  offset="1" style="stop-color:#FF928E"/>
				</linearGradient>
				<path style="fill:url(#SVGID_00000149363288602447548210000009115368826316838838_);" d="M1761.978,2161.7
					c1.476,0.783,3.288,0.544,4.511-0.596l34.876-32.539c21.538,5.682,44.138,7.971,67.009,6.429l28.062,38.532
					c0.984,1.352,2.718,1.93,4.316,1.44l54.702-16.765c1.599-0.491,2.71-1.941,2.769-3.611l1.652-47.639
					c19.808-11.54,37.244-26.097,51.899-42.873l47.12,7.409c1.652,0.259,3.286-0.557,4.07-2.034l26.825-50.535
					c0.784-1.478,0.545-3.289-0.596-4.511l-32.538-34.876c5.682-21.538,7.97-44.138,6.429-67.009l38.532-28.062
					c1.352-0.984,1.93-2.717,1.44-4.316l-16.765-54.703c-0.49-1.599-1.94-2.711-3.611-2.768l-47.639-1.652
					c-11.539-19.808-26.097-37.244-42.872-51.899l7.409-47.12c0.259-1.651-0.557-3.286-2.034-4.069l-50.535-26.825
					c-1.477-0.785-3.288-0.545-4.511,0.596l-34.876,32.539c-21.538-5.683-44.138-7.971-67.009-6.429l-28.062-38.533
					c-0.984-1.351-2.717-1.93-4.316-1.44l-54.703,16.766c-1.599,0.49-2.71,1.94-2.768,3.611l-1.652,47.639
					c-19.808,11.538-37.244,26.097-51.9,42.872l-47.119-7.408c-1.652-0.26-3.287,0.557-4.07,2.034l-26.825,50.535
					c-0.784,1.476-0.545,3.288,0.596,4.511l32.538,34.876c-5.683,21.538-7.97,44.138-6.429,67.009l-38.533,28.062
					c-1.351,0.983-1.93,2.717-1.439,4.316l16.765,54.702c0.49,1.599,1.94,2.71,3.611,2.769l47.639,1.652
					c11.539,19.807,26.097,37.243,42.872,51.899l-7.408,47.119c-0.26,1.652,0.557,3.286,2.034,4.071L1761.978,2161.7z"/>
				
					<linearGradient id="SVGID_00000181778015204613624130000015387973535813889941_" gradientUnits="userSpaceOnUse" x1="2241.4785" y1="1202.3665" x2="1509.7197" y2="2571.4653">
					<stop  offset="0" style="stop-color:#FF928E"/>
					<stop  offset="1" style="stop-color:#FE7062"/>
				</linearGradient>
				<path style="fill:url(#SVGID_00000181778015204613624130000015387973535813889941_);" d="M1841.594,1986.414
					c-0.581-0.125-1.158-0.255-1.734-0.401c-15.925-3.906-29.373-13.782-37.867-27.806c-8.495-14.024-11.019-30.517-7.112-46.436
					c3.911-15.924,13.787-29.372,27.811-37.866c28.939-17.537,66.757-8.253,84.304,20.691c8.495,14.024,11.019,30.516,7.111,46.441
					c-3.911,15.924-13.787,29.372-27.811,37.866C1872.781,1987.092,1856.974,1989.732,1841.594,1986.414z M1862.96,1887.1
					c-9.695-2.091-20.174-0.632-29.308,4.902c-9.188,5.564-15.66,14.377-18.222,24.811c-2.564,10.438-0.907,21.243,4.66,30.429
					c5.566,9.191,14.379,15.663,24.813,18.225c10.491,2.638,21.239,0.914,30.429-4.66l0.004-0.005
					c9.188-5.564,15.66-14.377,18.222-24.811c2.563-10.433,0.907-21.243-4.66-30.429
					C1882.937,1895.727,1873.405,1889.354,1862.96,1887.1z"/>
				
					<linearGradient id="SVGID_00000076577522083082589820000002837372564790987412_" gradientUnits="userSpaceOnUse" x1="2241.416" y1="1202.3342" x2="1509.6582" y2="2571.4319">
					<stop  offset="0" style="stop-color:#FF928E"/>
					<stop  offset="1" style="stop-color:#FE7062"/>
				</linearGradient>
				<path style="fill:url(#SVGID_00000076577522083082589820000002837372564790987412_);" d="M1865.452,2068.052
					c-2.212-0.477-3.951-2.348-4.152-4.721c-0.045-0.538-0.008-1.064,0.097-1.564c0.477-2.212,2.351-3.953,4.725-4.154
					c9.34-0.796,18.68-2.607,27.756-5.389c0.413-0.128,0.827-0.255,1.237-0.383c31.674-10.04,57.944-31.112,74.575-59.717
					c0.375-0.648,0.744-1.293,1.11-1.948c0.489-0.872,0.97-1.751,1.441-2.638c5.845-11.015,10.06-22.592,12.617-34.454
					c4.715-21.88,3.79-44.713-2.948-66.696c-21.453-69.996-95.839-109.479-165.84-88.038c-47.588,14.587-81.079,53.648-90.9,99.163
					c-4.622,21.425-4,44.276,2.867,66.679c7.054,23.019,20.182,43.649,37.962,59.665c1.46,1.314,2.019,3.257,1.63,5.049
					c-0.188,0.874-0.599,1.71-1.238,2.417c-1.956,2.173-5.301,2.344-7.472,0.391c-19.206-17.296-33.382-39.573-40.997-64.42
					c-7.414-24.19-8.086-48.865-3.094-71.996c10.603-49.14,46.76-91.315,98.143-107.065
					c75.574-23.145,155.896,19.484,179.055,95.053c7.274,23.737,8.274,48.388,3.183,72.01c-2.762,12.805-7.312,25.31-13.624,37.201
					c-17.952,33.821-47.999,58.623-84.607,69.845c-0.478,0.145-0.958,0.29-1.438,0.43c-9.338,2.758-18.926,4.568-28.521,5.383
					C1866.479,2068.2,1865.954,2068.161,1865.452,2068.052z"/>
			</g>
		</g>
		<g>
			<g style="opacity:0.64;">
				
					<linearGradient id="SVGID_00000034776970733911207540000009716184187396558774_" gradientUnits="userSpaceOnUse" x1="1120.3447" y1="1101.5232" x2="1545.2777" y2="2568.5571">
					<stop  offset="0" style="stop-color:#FEBBBA"/>
					<stop  offset="1" style="stop-color:#FF928E"/>
				</linearGradient>
				<path style="fill:url(#SVGID_00000034776970733911207540000009716184187396558774_);" d="M1273.25,1635.492
					c-3.26,0-6.366-1.903-7.742-5.086c-1.864-4.311-3.603-8.681-5.17-12.991c-1.591-4.377,0.665-9.212,5.042-10.805
					c4.38-1.586,9.214,0.665,10.805,5.042c1.452,4,3.069,8.058,4.801,12.063c1.847,4.274-0.119,9.235-4.393,11.085
					C1275.503,1635.269,1274.367,1635.492,1273.25,1635.492z"/>
				
					<linearGradient id="SVGID_00000088112591340028661270000014641440421191956888_" gradientUnits="userSpaceOnUse" x1="1286.3553" y1="1053.4357" x2="1711.2893" y2="2520.4729">
					<stop  offset="0" style="stop-color:#FEBBBA"/>
					<stop  offset="1" style="stop-color:#FF928E"/>
				</linearGradient>
				<path style="fill:url(#SVGID_00000088112591340028661270000014641440421191956888_);" d="M1257.186,1580.259
					c-4.07,0-7.653-2.956-8.315-7.105c-1.317-8.263-2.216-16.742-2.667-25.206c-0.053-0.934-0.096-1.877-0.135-2.817
					c-0.188-4.653,3.431-8.575,8.085-8.763c4.63-0.176,8.579,3.433,8.763,8.085c0.033,0.861,0.076,1.722,0.122,2.583
					c0.422,7.889,1.258,15.779,2.483,23.464c0.734,4.597-2.401,8.919-6.998,9.652
					C1258.075,1580.225,1257.628,1580.259,1257.186,1580.259z M1256.811,1509.187c-0.412,0-0.83-0.031-1.248-0.094
					c-4.607-0.683-7.785-4.973-7.1-9.578c1.376-9.27,3.326-18.549,5.786-27.578c1.228-4.492,5.875-7.14,10.35-5.916
					c4.492,1.225,7.143,5.86,5.918,10.352c-2.289,8.388-4.097,17.009-5.378,25.622
					C1264.517,1506.181,1260.921,1509.187,1256.811,1509.187z M1277.989,1441.344c-1.251,0-2.519-0.278-3.718-0.869
					c-4.176-2.057-5.895-7.11-3.84-11.287c4.133-8.388,8.809-16.627,13.9-24.489c2.536-3.909,7.759-5.02,11.661-2.491
					c3.909,2.531,5.022,7.752,2.493,11.659c-4.739,7.311-9.086,14.971-12.925,22.77
					C1284.091,1439.615,1281.101,1441.344,1277.989,1441.344z M1318.784,1383.136c-2.098,0-4.199-0.779-5.835-2.345
					c-3.359-3.222-3.471-8.559-0.25-11.92c6.471-6.749,13.413-13.191,20.631-19.143c3.593-2.961,8.908-2.453,11.869,1.141
					c2.964,3.593,2.45,8.906-1.14,11.867c-6.715,5.537-13.172,11.526-19.189,17.803
					C1323.214,1382.267,1321.001,1383.136,1318.784,1383.136z M1375.235,1339.97c-2.987,0-5.878-1.591-7.41-4.398
					c-2.226-4.088-0.718-9.209,3.369-11.437c8.219-4.479,16.792-8.513,25.476-11.992c4.317-1.734,9.227,0.367,10.96,4.691
					c1.732,4.322-0.369,9.231-4.69,10.961c-8.071,3.232-16.037,6.983-23.677,11.146
					C1377.981,1339.639,1376.598,1339.97,1375.235,1339.97z M1539.905,1318.136c-0.649,0-1.307-0.076-1.966-0.232
					c-8.45-2.019-17.121-3.555-25.772-4.566c-4.624-0.54-7.936-4.726-7.396-9.351c0.54-4.625,4.703-7.938,9.353-7.395
					c9.31,1.087,18.639,2.74,27.735,4.912c4.528,1.082,7.321,5.63,6.24,10.159
					C1547.172,1315.533,1543.718,1318.136,1539.905,1318.136z M1442.112,1316.004c-3.965,0-7.499-2.809-8.269-6.846
					c-0.876-4.573,2.121-8.99,6.695-9.866c9.145-1.75,18.53-2.987,27.889-3.67c4.689-0.372,8.684,3.148,9.023,7.793
					c0.339,4.643-3.148,8.682-7.792,9.022c-8.714,0.637-17.444,1.786-25.953,3.417
					C1443.172,1315.955,1442.639,1316.004,1442.112,1316.004z"/>
				
					<linearGradient id="SVGID_00000172423563847529324860000004865713227485152436_" gradientUnits="userSpaceOnUse" x1="1491.3647" y1="994.0552" x2="1916.2983" y2="2461.0908">
					<stop  offset="0" style="stop-color:#FEBBBA"/>
					<stop  offset="1" style="stop-color:#FF928E"/>
				</linearGradient>
				<path style="fill:url(#SVGID_00000172423563847529324860000004865713227485152436_);" d="M1593.862,1338.447
					c-1.327,0-2.671-0.313-3.925-0.975c-3.813-2.012-7.736-3.935-11.658-5.719c-4.241-1.926-6.115-6.925-4.189-11.164
					s6.929-6.112,11.164-4.186c4.222,1.918,8.444,3.99,12.547,6.153c4.12,2.172,5.697,7.271,3.524,11.389
					C1599.816,1336.812,1596.889,1338.447,1593.862,1338.447z"/>
			</g>
			<g style="opacity:0.64;">
				
					<linearGradient id="SVGID_00000021099679507312466090000006683270930703384226_" gradientUnits="userSpaceOnUse" x1="1564.3302" y1="972.9185" x2="1989.2638" y2="2439.9539">
					<stop  offset="0" style="stop-color:#FEBBBA"/>
					<stop  offset="1" style="stop-color:#FF928E"/>
				</linearGradient>
				<path style="fill:url(#SVGID_00000021099679507312466090000006683270930703384226_);" d="M1709.635,1482.809
					c-3.715,0-7.116-2.473-8.131-6.231c-1.13-4.176-2.394-8.36-3.757-12.433c-1.479-4.414,0.899-9.193,5.315-10.671
					c4.436-1.48,9.194,0.906,10.67,5.317c1.472,4.388,2.832,8.89,4.047,13.385c1.215,4.495-1.442,9.124-5.938,10.339
					C1711.108,1482.714,1710.367,1482.809,1709.635,1482.809z"/>
				
					<linearGradient id="SVGID_00000165198400423485763060000000518365392572526490_" gradientUnits="userSpaceOnUse" x1="1391.0775" y1="1023.1015" x2="1816.0117" y2="2490.1394">
					<stop  offset="0" style="stop-color:#FEBBBA"/>
					<stop  offset="1" style="stop-color:#FF928E"/>
				</linearGradient>
				<path style="fill:url(#SVGID_00000165198400423485763060000000518365392572526490_);" d="M1490.317,1775.208
					c-4.581,0-8.338-3.669-8.427-8.269c-0.086-4.656,3.616-8.501,8.269-8.59c2.582-0.049,5.17-0.143,7.769-0.283
					c5.977-0.319,12.01-0.883,17.924-1.675c4.604-0.621,8.855,2.625,9.471,7.238c0.619,4.615-2.621,8.857-7.238,9.474
					c-6.353,0.85-12.833,1.456-19.255,1.8c-2.789,0.15-5.575,0.25-8.348,0.303
					C1490.425,1775.208,1490.373,1775.208,1490.317,1775.208z M1447.061,1772.002c-0.468,0-0.942-0.04-1.419-0.12
					c-9.079-1.54-18.162-3.629-27-6.209c-4.469-1.306-7.034-5.987-5.727-10.456c1.304-4.47,5.984-7.032,10.456-5.73
					c8.21,2.399,16.653,4.34,25.09,5.771c4.591,0.779,7.68,5.131,6.902,9.721
					C1454.665,1769.092,1451.099,1772.002,1447.061,1772.002z M1559.235,1763.428c-3.534,0-6.823-2.236-7.999-5.773
					c-1.469-4.418,0.922-9.189,5.338-10.658c8.121-2.7,16.166-5.906,23.915-9.529c4.215-1.971,9.234-0.15,11.207,4.065
					c1.973,4.219,0.151,9.235-4.067,11.208c-8.335,3.899-16.996,7.349-25.733,10.253
					C1561.014,1763.29,1560.115,1763.428,1559.235,1763.428z M1621.465,1731.554c-2.615,0-5.193-1.212-6.843-3.496
					c-2.723-3.774-1.874-9.045,1.9-11.77c6.935-5.007,13.656-10.474,19.973-16.247c3.441-3.143,8.776-2.898,11.911,0.535
					c3.138,3.436,2.901,8.77-0.537,11.91c-6.794,6.209-14.019,12.087-21.475,17.472
					C1624.9,1731.035,1623.175,1731.554,1621.465,1731.554z M1671.346,1682.573c-1.762,0-3.537-0.548-5.055-1.688
					c-3.721-2.794-4.475-8.078-1.683-11.802c5.151-6.859,9.945-14.078,14.259-21.455c2.351-4.019,7.518-5.371,11.532-3.021
					c4.021,2.351,5.374,7.515,3.023,11.534c-4.637,7.928-9.794,15.688-15.326,23.062
					C1676.441,1681.409,1673.908,1682.573,1671.346,1682.573z M1704.432,1620.977c-0.935,0-1.89-0.156-2.822-0.487
					c-4.386-1.559-6.682-6.379-5.121-10.765c2.865-8.075,5.286-16.395,7.189-24.73c1.037-4.538,5.562-7.377,10.097-6.339
					c4.541,1.037,7.38,5.557,6.343,10.097c-2.052,8.97-4.656,17.926-7.742,26.613
					C1711.15,1618.822,1707.9,1620.977,1704.432,1620.977z M1717.549,1552.296c-0.105,0-0.214-0.002-0.319-0.006
					c-4.653-0.171-8.286-4.083-8.111-8.737c0.102-2.737,0.151-5.486,0.151-8.246c0-4.003-0.109-8.085-0.323-12.132
					c-0.099-1.788-0.217-3.583-0.356-5.371c-0.362-4.642,3.105-8.699,7.746-9.061c4.656-0.367,8.7,3.104,9.063,7.747
					c0.151,1.917,0.277,3.843,0.382,5.776c0.231,4.357,0.349,8.74,0.349,13.041c0,2.97-0.056,5.928-0.165,8.872
					C1725.798,1548.724,1722.061,1552.296,1717.549,1552.296z"/>
				
					<linearGradient id="SVGID_00000100345045963261887250000012438850160301124542_" gradientUnits="userSpaceOnUse" x1="1184.8049" y1="1082.8507" x2="1609.7386" y2="2549.8867">
					<stop  offset="0" style="stop-color:#FEBBBA"/>
					<stop  offset="1" style="stop-color:#FF928E"/>
				</linearGradient>
				<path style="fill:url(#SVGID_00000100345045963261887250000012438850160301124542_);" d="M1380.537,1749.905
					c-1.294,0-2.608-0.298-3.837-0.929c-4.139-2.121-8.259-4.385-12.244-6.728c-4.011-2.359-5.351-7.526-2.993-11.539
					c2.361-4.016,7.528-5.355,11.542-2.994c3.702,2.177,7.531,4.281,11.381,6.254c4.146,2.124,5.783,7.204,3.659,11.348
					C1386.553,1748.23,1383.6,1749.905,1380.537,1749.905z"/>
			</g>
			<g>
				
					<linearGradient id="SVGID_00000145776446961999384930000011963621207492537488_" gradientUnits="userSpaceOnUse" x1="1342.2439" y1="1037.2473" x2="1767.1776" y2="2504.2837">
					<stop  offset="0" style="stop-color:#FEBBBA"/>
					<stop  offset="1" style="stop-color:#FF928E"/>
				</linearGradient>
				<path style="fill:url(#SVGID_00000145776446961999384930000011963621207492537488_);" d="M1377.284,1676.06
					c0.857,0.82,2.14,1.007,3.195,0.465l30.101-15.478c13.608,8.042,28.597,13.972,44.511,17.339l11.714,31.732
					c0.411,1.114,1.483,1.843,2.669,1.817l40.59-0.876c1.186-0.026,2.225-0.801,2.588-1.93l10.334-32.208
					c15.754-4.052,30.473-10.622,43.721-19.244l30.741,14.164c1.078,0.496,2.351,0.255,3.172-0.602l28.082-29.321
					c0.821-0.857,1.007-2.141,0.465-3.195l-15.477-30.101c8.042-13.608,13.971-28.597,17.339-44.511l31.732-11.715
					c1.113-0.411,1.843-1.482,1.817-2.668l-0.876-40.591c-0.026-1.186-0.801-2.225-1.931-2.587l-32.208-10.334
					c-4.051-15.755-10.621-30.473-19.244-43.721l14.164-30.742c0.496-1.077,0.254-2.351-0.602-3.172l-29.321-28.082
					c-0.857-0.821-2.14-1.007-3.195-0.465l-30.101,15.478c-13.608-8.042-28.597-13.972-44.511-17.339l-11.715-31.733
					c-0.411-1.113-1.482-1.843-2.668-1.817l-40.59,0.877c-1.186,0.026-2.225,0.801-2.587,1.931l-10.334,32.208
					c-15.754,4.051-30.473,10.622-43.721,19.244l-30.741-14.164c-1.077-0.497-2.352-0.255-3.172,0.602l-28.081,29.321
					c-0.82,0.857-1.007,2.14-0.465,3.195l15.478,30.101c-8.042,13.608-13.971,28.597-17.339,44.511l-31.733,11.715
					c-1.112,0.41-1.842,1.482-1.816,2.669l0.876,40.589c0.026,1.186,0.801,2.225,1.93,2.589l32.208,10.334
					c4.051,15.754,10.622,30.472,19.244,43.721l-14.163,30.741c-0.497,1.078-0.255,2.351,0.602,3.172L1377.284,1676.06z"/>
				
					<linearGradient id="SVGID_00000156583459562133941450000011761414031365163425_" gradientUnits="userSpaceOnUse" x1="1791.3596" y1="961.7856" x2="1059.6013" y2="2330.8838">
					<stop  offset="0" style="stop-color:#FF928E"/>
					<stop  offset="1" style="stop-color:#FE7062"/>
				</linearGradient>
				<path style="fill:url(#SVGID_00000156583459562133941450000011761414031365163425_);" d="M1475.03,1584.07
					c-5.11-1.102-10.074-2.992-14.749-5.644c-12.058-6.85-20.73-17.984-24.411-31.355c-3.684-13.372-1.94-27.374,4.908-39.435
					c6.849-12.056,17.983-20.725,31.355-24.409c13.37-3.679,27.375-1.931,39.431,4.907c12.058,6.85,20.73,17.984,24.411,31.355
					c7.605,27.592-8.659,56.234-36.26,63.845l-0.003-0.001C1491.525,1585.589,1483.098,1585.811,1475.03,1584.07z
					 M1495.496,1568.035l0.051,0.011L1495.496,1568.035z M1490.155,1513.537c-3.138-0.677-6.412-0.591-9.595,0.287
					c-5.197,1.431-9.525,4.799-12.188,9.488c-2.663,4.689-3.338,10.134-1.907,15.331c1.431,5.197,4.802,9.523,9.489,12.182
					c4.687,2.67,10.128,3.342,15.325,1.911l0,0c10.729-2.959,17.053-14.087,14.097-24.818c-1.431-5.197-4.802-9.523-9.489-12.182
					C1494.072,1514.699,1492.14,1513.965,1490.155,1513.537z"/>
				
					<linearGradient id="SVGID_00000129906284581761810810000009999551274520749987_" gradientUnits="userSpaceOnUse" x1="1791.4873" y1="961.8532" x2="1059.7292" y2="2330.9512">
					<stop  offset="0" style="stop-color:#FF928E"/>
					<stop  offset="1" style="stop-color:#FE7062"/>
				</linearGradient>
				<path style="fill:url(#SVGID_00000129906284581761810810000009999551274520749987_);" d="M1466.677,1633.971
					c-2.802-0.605-4.621-3.343-4.077-6.174c0.008-0.035,0.016-0.076,0.025-0.116c0.605-2.802,3.343-4.621,6.171-4.075
					c6.431,1.239,13.047,1.8,19.67,1.659c0.162-0.002,0.322-0.01,0.483-0.012c49.641-1.334,89.321-41.713,90.177-90.996
					c0.021-1.211,0.019-2.427-0.007-3.653c-1.102-51.084-43.573-91.746-94.654-90.649c-24.748,0.532-47.807,10.677-64.93,28.554
					c-12.005,12.534-20.085,27.823-23.657,44.369c-1.522,7.054-2.226,14.337-2.067,21.733c0.361,16.798,5.256,33.152,14.154,47.289
					c0.765,1.217,0.977,2.626,0.696,3.928c-0.29,1.343-1.097,2.575-2.354,3.366c-2.475,1.553-5.739,0.807-7.294-1.658
					c-9.919-15.763-15.376-33.982-15.777-52.702c-0.178-8.24,0.605-16.351,2.303-24.208c3.979-18.435,12.981-35.469,26.356-49.436
					c19.077-19.918,44.769-31.217,72.341-31.811c56.924-1.227,104.229,44.082,105.457,101.001c0.178,8.24-0.619,16.28-2.285,24.005
					c-9.85,45.646-50.036,80.399-98.716,81.455c-0.619,0.014-1.239,0.023-1.857,0.022c-6.331,0.024-12.649-0.525-18.823-1.64
					c-0.056-0.012-0.112-0.019-0.168-0.031c-0.351-0.065-0.701-0.13-1.052-0.195
					C1466.755,1633.988,1466.715,1633.979,1466.677,1633.971z"/>
			</g>
		</g>
		<g>
			<g>
				<g>
					
						<ellipse transform="matrix(0.7071 -0.7071 0.7071 0.7071 -35.8813 1445.6206)" style="fill:#7D97F4;" cx="1727.078" cy="766.123" rx="280.826" ry="280.827"/>
					
						<ellipse transform="matrix(0.7071 -0.7071 0.7071 0.7071 -35.8813 1445.6206)" style="fill:#91B3FA;" cx="1727.078" cy="766.123" rx="271.488" ry="271.488"/>
					<path style="opacity:0.83;fill:#FFFFFF;" d="M1476.813,755.691c-0.051,0-0.103,0-0.153-0.003
						c-1.583-0.084-2.797-1.434-2.715-3.014c0.557-10.666,1.797-21.377,3.685-31.839c0.28-1.558,1.761-2.594,3.332-2.314
						c1.559,0.283,2.593,1.773,2.312,3.333c-1.843,10.223-3.054,20.694-3.601,31.116
						C1479.594,754.503,1478.328,755.691,1476.813,755.691z"/>
					<path style="opacity:0.83;fill:#FFFFFF;" d="M1503.209,656.213c-0.434,0-0.875-0.098-1.29-0.308
						c-1.414-0.715-1.981-2.44-1.267-3.852c43.406-85.994,130.167-139.414,226.426-139.414c15.351,0,30.735,1.383,45.725,4.118
						c1.559,0.283,2.592,1.776,2.308,3.336c-0.283,1.56-1.772,2.602-3.336,2.305c-14.651-2.669-29.689-4.022-44.697-4.022
						c-94.082,0-178.88,52.214-221.306,136.26C1505.267,655.636,1504.258,656.213,1503.209,656.213z"/>
					
						<ellipse transform="matrix(0.7071 -0.7071 0.7071 0.7071 -38.3313 1451.5356)" style="opacity:0.83;fill:#FFFFFF;" cx="1732.993" cy="772.038" rx="229.782" ry="229.782"/>
				</g>
			</g>
			<g>
				<path style="fill:#91B3FA;" d="M1800.348,681.187c0,40.252-32.631,83.707-72.883,83.707c-40.252,0-72.882-43.455-72.882-83.707
					s32.63-68.808,72.882-68.808C1767.718,612.379,1800.348,640.935,1800.348,681.187z"/>
				<path style="fill:#91B3FA;" d="M1637.018,919.867h177.919c18.729,0,35.31-12.104,41.018-29.943l9.574-29.923
					c7.01-21.909-4.387-45.63-25.991-53.53c-72.407-26.474-147.277-23.078-223.974,2.443c-21.486,7.149-33.409,30.131-27.481,51.987
					l7.372,27.175C1600.544,906.84,1617.575,919.867,1637.018,919.867z"/>
			</g>
		</g>
		<g>
			<g>
				<path style="fill:#7D97F4;" d="M1359.489,3231.522c-5.037,0-9.12-4.083-9.12-9.12V2132.253c0-5.038,4.083-9.12,9.12-9.12
					c5.038,0,9.12,4.083,9.12,9.12v1090.149C1368.609,3227.439,1364.527,3231.522,1359.489,3231.522z"/>
			</g>
			<g>
				<path style="fill:#7D97F4;" d="M1112.333,3231.522c-5.037,0-9.12-4.083-9.12-9.12V2132.253c0-5.038,4.083-9.12,9.12-9.12
					s9.12,4.083,9.12,9.12v1090.149C1121.453,3227.439,1117.371,3231.522,1112.333,3231.522z"/>
			</g>
			<path style="fill:#91B3FA;" d="M505.104,3238.437c-1.191,0-2.399-0.235-3.564-0.73c-4.635-1.97-6.796-7.325-4.825-11.963
				l466.387-1097.061c1.97-4.635,7.333-6.791,11.961-4.824c4.635,1.971,6.795,7.325,4.826,11.963L513.501,3232.883
				C512.026,3236.353,508.651,3238.437,505.104,3238.437z"/>
			<path style="fill:#91B3FA;" d="M793.186,3238.437c-1.192,0-2.399-0.235-3.564-0.73c-4.635-1.97-6.796-7.325-4.826-11.963
				l466.387-1097.061c1.972-4.635,7.332-6.791,11.961-4.824c4.635,1.971,6.796,7.325,4.825,11.963L801.584,3232.883
				C800.109,3236.353,796.733,3238.437,793.186,3238.437z"/>
			<path style="fill:#91B3FA;" d="M1373.649,2142.285H946.426c-7.099,0-12.855-5.755-12.855-12.854l0,0
				c0-7.099,5.755-12.854,12.855-12.854h427.222c7.099,0,12.854,5.755,12.854,12.854l0,0
				C1386.503,2136.531,1380.748,2142.285,1373.649,2142.285z"/>
			<path style="fill:#91B3FA;" d="M1189.118,2309.122H900.182c-5.038,0-9.12-4.083-9.12-9.12c0-5.037,4.082-9.12,9.12-9.12h288.936
				c5.037,0,9.12,4.083,9.12,9.12C1198.239,2305.039,1194.156,2309.122,1189.118,2309.122z"/>
			<rect x="811.527" y="2498.364" style="fill:#91B3FA;" width="288.936" height="18.24"/>
			<rect x="725.7" y="2705.846" style="fill:#91B3FA;" width="288.936" height="18.24"/>
			<path style="fill:#91B3FA;" d="M924.631,2931.569H635.694c-5.037,0-9.12-4.083-9.12-9.12s4.083-9.12,9.12-9.12h288.937
				c5.037,0,9.12,4.083,9.12,9.12S929.668,2931.569,924.631,2931.569z"/>
			<path style="fill:#91B3FA;" d="M837.612,3139.054H548.676c-5.037,0-9.12-4.083-9.12-9.12c0-5.038,4.083-9.12,9.12-9.12h288.936
				c5.038,0,9.12,4.083,9.12,9.12C846.732,3134.971,842.65,3139.054,837.612,3139.054z"/>
		</g>
		<g>
			
				<linearGradient id="SVGID_00000007420494941664169010000007394233704844065932_" gradientUnits="userSpaceOnUse" x1="-6067.9624" y1="1787.2632" x2="-5969.0659" y2="1787.2632" gradientTransform="matrix(0.9987 0.0507 -0.0507 0.9987 7143.3555 595.7192)">
				<stop  offset="0" style="stop-color:#09005D"/>
				<stop  offset="1" style="stop-color:#1A0F91"/>
			</linearGradient>
			<path style="fill:url(#SVGID_00000007420494941664169010000007394233704844065932_);" d="M1008.18,2038.908
				c0,0-11.852,16.744-17.07,65.04c-0.486,4.5,2.893,8.526,7.413,8.756l85.837,4.354c3.454,0.176,6.091-3.086,5.151-6.414
				c-4.276-15.142-17.643-52.209-50.525-74.671L1008.18,2038.908z"/>
			
				<linearGradient id="SVGID_00000005227414853766372330000008303903729978819975_" gradientUnits="userSpaceOnUse" x1="-5910.4556" y1="1356.3442" x2="-5870.3462" y2="1356.3442" gradientTransform="matrix(0.9937 -0.112 0.112 0.9937 6720.2886 24.4975)">
				<stop  offset="0" style="stop-color:#FEBBBA"/>
				<stop  offset="1" style="stop-color:#FF928E"/>
			</linearGradient>
			<path style="fill:url(#SVGID_00000005227414853766372330000008303903729978819975_);" d="M996.543,2012.65l9.397,39.96
				c0.811,3.447,3.866,5.937,7.406,5.945c4.732,0.011,11.565-0.375,18.04-2.208c5.887-1.665,9.601-7.495,8.915-13.573l-4.409-39.107
				L996.543,2012.65z"/>
			
				<linearGradient id="SVGID_00000134965037910961407520000014036720372765536416_" gradientUnits="userSpaceOnUse" x1="-5813.9219" y1="1548.8502" x2="-5658.7524" y2="1548.8502" gradientTransform="matrix(0.9994 0.0349 -0.0349 0.9994 7051.2871 734.0373)">
				<stop  offset="0" style="stop-color:#09005D"/>
				<stop  offset="1" style="stop-color:#1A0F91"/>
			</linearGradient>
			<path style="fill:url(#SVGID_00000134965037910961407520000014036720372765536416_);" d="M1204.208,2041.877
				c0,0-17.332,24.981-18.203,60.07c-0.205,8.265,6.482,15.087,14.745,15.376l133.405,4.652c6.246,0.218,9.062-7.721,4.076-11.489
				c-24.626-18.607-73.088-53.453-108.52-67.72L1204.208,2041.877z"/>
			
				<linearGradient id="SVGID_00000059271388083545003900000010767747130433169342_" gradientUnits="userSpaceOnUse" x1="-5872.4248" y1="1736.7394" x2="-5832.5366" y2="1736.7394" gradientTransform="matrix(0.9907 0.1362 -0.1362 0.9907 7252.5708 1097.9357)">
				<stop  offset="0" style="stop-color:#FEBBBA"/>
				<stop  offset="1" style="stop-color:#FF928E"/>
			</linearGradient>
			<path style="fill:url(#SVGID_00000059271388083545003900000010767747130433169342_);" d="M1200.885,1999.286l3.417,51.284
				c0.382,5.736,5.324,10.237,11.053,9.761c3.483-0.29,7.668-1.187,12.294-3.265c4.397-1.975,7.11-6.509,6.929-11.324l-2.321-61.881
				L1200.885,1999.286z"/>
			
				<linearGradient id="SVGID_00000181046628649814154400000000927073634434761350_" gradientUnits="userSpaceOnUse" x1="-5938.0186" y1="1007.9451" x2="-5666.0664" y2="1007.9451" gradientTransform="matrix(0.9937 -0.112 0.112 0.9937 6720.2886 24.4975)">
				<stop  offset="0" style="stop-color:#09005D"/>
				<stop  offset="1" style="stop-color:#1A0F91"/>
			</linearGradient>
			<path style="fill:url(#SVGID_00000181046628649814154400000000927073634434761350_);" d="M935.297,1322.823
				c0,0-32.265,35.624-34.722,74.385c-2.458,38.76,93.024,653.479,93.024,653.479s36.496,1.921,53.702-11.352
				c0,0-23.291-403.307-17.085-497.809c0,0,134.127,405.372,166.778,477.668c0,0,34.986,0.307,45.375-7.514
				c0,0-83.556-535.658-123.084-628.108L935.297,1322.823z"/>
			<path style="fill:#666694;" d="M1027.267,1529.949c-2.098,0-4.078-1.274-4.875-3.349l-21.069-54.751l-33.421-16.481
				c-2.587-1.277-3.651-4.41-2.374-6.997c1.277-2.584,4.41-3.651,6.997-2.374l35.253,17.385c1.177,0.581,2.092,1.583,2.564,2.81
				l21.801,56.656c1.037,2.694-0.305,5.717-2.999,6.751C1028.526,1529.837,1027.892,1529.949,1027.267,1529.949z"/>
			
				<linearGradient id="SVGID_00000166644248141649414380000018085240664665226905_" gradientUnits="userSpaceOnUse" x1="1779.1139" y1="-27.9351" x2="1394.7069" y2="659.9506">
				<stop  offset="0" style="stop-color:#E1473D"/>
				<stop  offset="1" style="stop-color:#E9605A"/>
			</linearGradient>
			<path style="fill:url(#SVGID_00000166644248141649414380000018085240664665226905_);" d="M1248.597,926.083
				c-152.226,4.484-188.124,40.137-188.124,40.137l85.376,106.247c0,0,147.859-19.635,244.815-113.448
				c-22.285-19.161-38.753-41.257-49.681-58.675C1314.884,914.81,1284.105,925.036,1248.597,926.083z"/>
			
				<linearGradient id="SVGID_00000171684453158184900090000012751956262100538775_" gradientUnits="userSpaceOnUse" x1="-5443.6006" y1="193.7764" x2="-5295.3613" y2="193.7764" gradientTransform="matrix(0.9937 -0.112 0.112 0.9937 6720.2886 24.4975)">
				<stop  offset="0" style="stop-color:#FEBBBA"/>
				<stop  offset="1" style="stop-color:#FF928E"/>
			</linearGradient>
			<path style="fill:url(#SVGID_00000171684453158184900090000012751956262100538775_);" d="M1459.809,678.081
				c-0.749-4.81-7.447-5.386-9.005-0.774l-14.615,43.233c-2.823,8.354-3.013,17.373-0.544,25.838l9.444,23.14
				c3.333,11.428,1.635,23.714-4.712,33.785c-15.19,24.1-48.296,68.718-99.395,97.04c10.928,17.418,27.396,39.513,49.681,58.675
				c35.575-34.421,64.307-78.817,76.354-135.91c8.442-3.672,13.357-12.564,11.979-21.666L1459.809,678.081z"/>
			
				<linearGradient id="SVGID_00000100344349190378470400000006801795900646124715_" gradientUnits="userSpaceOnUse" x1="1474.4762" y1="796.0849" x2="953.5029" y2="1408.103">
				<stop  offset="0" style="stop-color:#FF928E"/>
				<stop  offset="1" style="stop-color:#FE7062"/>
			</linearGradient>
			<path style="fill:url(#SVGID_00000100344349190378470400000006801795900646124715_);" d="M1305.718,986.821
				c-59.542-51.223-163.585-65.667-223.333-69.683c-26.176-1.759-49.851,15.366-56.185,40.823
				c-18.362,73.801-69.247,266.153-79.566,299.391c-8.467,27.267-17.504,53.985-23.275,70.703
				c-3.449,9.987,1.777,20.883,11.749,24.376c51.938,18.19,143.607,35.06,180.724,41.488c8.164,1.414,15.367-5.408,14.438-13.642
				c-0.787-6.982,0.338-14.049,3.256-20.441l110.526-242.14c95.433,84.492,170.689,84.716,225.435,57.695
				c-12.939-28.573-22.568-57.575-28.935-87.002C1354.616,1083.452,1305.718,986.821,1305.718,986.821z"/>
			
				<linearGradient id="SVGID_00000042704352730499991060000017196595671100901534_" gradientUnits="userSpaceOnUse" x1="-5107.9219" y1="226.0934" x2="-5428.2334" y2="624.5919" gradientTransform="matrix(0.9937 -0.112 0.112 0.9937 6720.2886 24.4975)">
				<stop  offset="0" style="stop-color:#FEBBBA"/>
				<stop  offset="1" style="stop-color:#FF928E"/>
			</linearGradient>
			<path style="fill:url(#SVGID_00000042704352730499991060000017196595671100901534_);" d="M1578.119,1056.893l-17.501-18.57
				c-45.442,39.381-85.71,52.041-120.066,50.067c6.367,29.427,15.996,58.429,28.935,87.002
				C1541.609,1139.795,1578.119,1056.893,1578.119,1056.893z"/>
			
				<linearGradient id="SVGID_00000127743160563100315210000015463584541738016956_" gradientUnits="userSpaceOnUse" x1="-5047.1914" y1="274.8974" x2="-5367.5127" y2="673.4075" gradientTransform="matrix(0.9937 -0.112 0.112 0.9937 6720.2886 24.4975)">
				<stop  offset="0" style="stop-color:#FEBBBA"/>
				<stop  offset="1" style="stop-color:#FF928E"/>
			</linearGradient>
			<path style="fill:url(#SVGID_00000127743160563100315210000015463584541738016956_);" d="M1567.432,1058.47l86.093-6.322
				l73.949-52.976c-12.128-5.824-74.553,15.913-74.553,15.913s-68.109-2.578-86.237-0.557c-15.056,1.677-10.464,23.082-8.476,30.287
				c0.406,1.47,0.704,2.349,0.704,2.349L1567.432,1058.47z"/>
			
				<linearGradient id="SVGID_00000093883189070120047940000017889433175127296958_" gradientUnits="userSpaceOnUse" x1="-5468.2866" y1="-14.7224" x2="-5778.5054" y2="555.2742" gradientTransform="matrix(0.9937 -0.112 0.112 0.9937 6720.2886 24.4975)">
				<stop  offset="0" style="stop-color:#FEBBBA"/>
				<stop  offset="1" style="stop-color:#FF928E"/>
			</linearGradient>
			<path style="fill:url(#SVGID_00000093883189070120047940000017889433175127296958_);" d="M1151.074,802.99l-32.782,115.459
				c0,0,56.019,30.109,97.44,21.972l11.382-101.778L1151.074,802.99z"/>
			<g>
				
					<linearGradient id="SVGID_00000021815199246471811760000011691802517957427362_" gradientUnits="userSpaceOnUse" x1="-3770.1829" y1="-802.0347" x2="-3907.2869" y2="-620.6574" gradientTransform="matrix(0.7472 -0.6646 0.6646 0.7472 4549.52 -1168.7673)">
					<stop  offset="0" style="stop-color:#FEBBBA"/>
					<stop  offset="1" style="stop-color:#FF928E"/>
				</linearGradient>
				<path style="fill:url(#SVGID_00000021815199246471811760000011691802517957427362_);" d="M1218.987,719.143
					c1.201,1.351,45.788,112.233,45.788,112.233l-63.853,24.112l-57.873-98.815C1143.049,756.673,1198.876,696.531,1218.987,719.143
					z"/>
				
					<linearGradient id="SVGID_00000118389366300343560320000018144767843920071841_" gradientUnits="userSpaceOnUse" x1="-3874.8904" y1="-758.282" x2="-3711.1155" y2="-758.282" gradientTransform="matrix(0.7472 -0.6646 0.6646 0.7472 4549.52 -1168.7673)">
					<stop  offset="0" style="stop-color:#09005D"/>
					<stop  offset="1" style="stop-color:#1A0F91"/>
				</linearGradient>
				<path style="fill:url(#SVGID_00000118389366300343560320000018144767843920071841_);" d="M1169.584,769.686l26.392,54.404
					c0.339,0.697,0.758,1.33,1.273,1.911c3.15,3.551,14.88,14.973,25.834,2.258c9.94-11.538,19.182-21.919,28.49-24.664
					c4.179-1.232,8.602,0.904,10.227,4.947c4.048,10.076,12.751,32.949,17.28,53.974c0.919,4.267-1.621,8.503-5.79,9.793
					c-12.564,3.885-39.292,11.34-62.199,12.3c-3.104,0.13-6.022-1.412-7.623-4.074c-7.806-12.979-31.677-52.34-40.026-62.279
					c-7.835-9.329-24.225-7.194-31.043-5.807c-2.236,0.455-4.538-0.022-6.411-1.325c-6.621-4.602-19.608-16.792-5.297-34.753
					c2.995-3.759,2.29-9.198-1.559-12.078c-7.661-5.733-16.372-16.448-6.446-32.075c10.089-15.885,25.835-15.314,35.713-12.921
					c3.994,0.967,7.996-1.126,9.685-4.872c0.961-2.133,2.862-3.879,6.487-3.975c4.886-0.13,8.499-4.626,7.864-9.472
					c-1.219-9.31,0.792-21.473,16.407-28.334c27.709-12.176,48.745,13.548,52.851,34.049c4.108,20.502-26.683,31.994-45.472,32.699
					c-14.286,0.535-23.22,15.762-26.683,23.03C1168.442,764.723,1168.471,767.391,1169.584,769.686z"/>
				
					<linearGradient id="SVGID_00000134245480177187639350000007288356065846620576_" gradientUnits="userSpaceOnUse" x1="-3970.9868" y1="-658.3997" x2="-3861.0181" y2="-771.2247" gradientTransform="matrix(0.7472 -0.6646 0.6646 0.7472 4549.52 -1168.7673)">
					<stop  offset="0" style="stop-color:#FEBBBA"/>
					<stop  offset="1" style="stop-color:#FF928E"/>
				</linearGradient>
				<path style="fill:url(#SVGID_00000134245480177187639350000007288356065846620576_);" d="M1173.249,837.968
					c0,0-8.691-35.415-23.839-35.49c-15.149-0.075-28.315,13.852-11.177,32.347C1159.55,857.832,1173.249,837.968,1173.249,837.968z
					"/>
			</g>
		</g>
	</g>
</g>
</svg>
